<?xml version="1.0" encoding="UTF-8" standalone="no"?>
<svg
   class="svg-standalone-icon"
   width="16573.154"
   viewBox="210.63162 115 16573.155 16535.112"
   version="1.1"
   id="svg6"
   height="16535.111"
   xmlns="http://www.w3.org/2000/svg"
   xmlns:svg="http://www.w3.org/2000/svg">
  <defs
     id="defs10" />
  <g
     data-paper-data="{&quot;isIcon&quot;:&quot;true&quot;,&quot;iconType&quot;:&quot;icon&quot;,&quot;rawIconId&quot;:&quot;4033925&quot;,&quot;selectedEffects&quot;:{&quot;container&quot;:&quot;&quot;,&quot;transformation&quot;:&quot;&quot;,&quot;pattern&quot;:&quot;&quot;},&quot;isDetailed&quot;:false,&quot;fillRule&quot;:&quot;evenodd&quot;,&quot;bounds&quot;:{&quot;x&quot;:210.63162093849562,&quot;y&quot;:115,&quot;width&quot;:128.73675812300874,&quot;height&quot;:128.5889171145874},&quot;iconStyle&quot;:&quot;standalone&quot;,&quot;suitableAsStandaloneIcon&quot;:true}"
     fill-rule="evenodd"
     id="g4"
     transform="translate(0.00140819)">
    <path
       d="M 320.61038,133.77931 C 309.39794,122.56089 294.44031,115.87407 278.60349,115 h -0.0858 c -1.4947,0.0224 -2.71888,1.21331 -2.77242,2.71727 -0.092,1.58686 1.11126,2.95171 2.69714,3.05944 31.60078,1.83009 56.05777,28.38917 55.28184,60.03343 -0.77573,31.64425 -26.505,56.97278 -58.15771,57.25196 -31.65251,0.27917 -57.82441,-24.59164 -59.15827,-56.21739 -0.0971,-1.58346 -1.43345,-2.80402 -3.01919,-2.75752 -0.76707,0.03 -1.49095,0.36291 -2.01279,0.92588 -0.41462,0.45811 -0.67326,1.03216 -0.74473,1.63962 v 0.79626 c 1.45256,28.57153 21.58997,52.78417 49.45864,59.39537 28.00634,6.64401 57.02109,-6.10036 71.07599,-31.21915 14.0547,-25.11879 9.73747,-56.51367 -10.57599,-76.90623 z m -45.56953,99.37137 c 29.12928,0.17934 53.10642,-22.86508 54.08242,-51.97865 0.9762,-29.11337 -21.40379,-53.71194 -50.47953,-55.48413 -1.5897,-0.0611 -2.9278,1.17794 -2.98899,2.76758 -0.0612,1.58964 1.17788,2.92784 2.76758,2.98899 21.25645,1.51595 38.97181,16.85831 43.50804,37.68041 4.53643,20.8221 -5.19118,42.14316 -23.89079,52.3641 -18.69941,10.22074 -41.8978,6.89662 -56.9746,-8.16427 -1.12293,-1.08389 -2.90264,-1.08389 -4.02558,0 -1.06336,1.13118 -1.06336,2.89439 0,4.02558 10.05489,10.12131 23.7346,15.80905 38.00145,15.80039 z m 37.3797,-52.51807 c 0.67166,-19.77142 -14.16299,-36.64946 -33.85732,-38.52034 l -0.30192,-0.0805 c -1.5106,-0.0865 -2.67399,-1.36628 -2.61663,-2.87829 0.10346,-1.53556 1.35984,-2.73961 2.89842,-2.77765 h 0.52333 c 22.55128,2.35959 39.43495,21.76187 38.65601,44.42285 -0.77875,22.66118 -18.95463,40.8584 -41.61481,41.66412 -1.57078,0.0225 -2.8654,-1.2272 -2.89842,-2.79778 -6.1e-4,-1.56977 1.24873,-2.85474 2.81791,-2.89842 19.77585,-0.53017 35.72176,-16.36236 36.39343,-36.13398 z m -18.07705,18.03901 c 7.81807,-7.80922 10.16056,-19.55968 5.93471,-29.76974 -4.22585,-10.21027 -14.18714,-16.86838 -25.23735,-16.86838 -11.05021,0 -21.0115,6.6581 -25.23735,16.86838 -4.22585,10.21007 -1.88337,21.96053 5.93471,29.76974 10.67321,10.62994 27.93207,10.62994 38.60528,0 z"
       data-paper-data="{&quot;isPathIcon&quot;:true}"
       style="fill:#000000"
       id="path2" />
  </g>
</svg>
