<svg xmlns="http://www.w3.org/2000/svg" id="a" viewBox="0 0 865.76 682.89">
  <g>
    <g id="b">
      <path d="M545.59,42.46S428.31-3.61,316.15,61.41c-112.16,65.02-166.04,198.81-212.52,305.88-46.49,107.08-15.08,218.19,73.29,270.91,88.36,52.72,145.55-19.78,267.54-19.98s155.29,18.82,254.67-49.9c99.37-68.72,113.15-237.16,29.89-364.42-83.26-127.25-183.42-161.44-183.42-161.44Z" fill="#b212ce" data-primary="true"></path>
      <g opacity=".7">
        <path d="M545.59,42.46S428.31-3.61,316.15,61.41c-112.16,65.02-166.04,198.81-212.52,305.88-46.49,107.08-15.08,218.19,73.29,270.91,88.36,52.72,145.55-19.78,267.54-19.98,121.99-.21,155.29,18.82,254.67-49.9,99.37-68.72,113.15-237.16,29.89-364.42-83.26-127.25-183.42-161.44-183.42-161.44Z" fill="#fff"></path>
      </g>
    </g>
    <g id="c">
      <path d="M173.16,395.39s0-5.72-8.03-13.75-13.17-12.61-13.17-12.61c0,0-4.02,13.18,3.43,21.2,5.47,5.64,11.4,10.82,17.74,15.48l.03-10.32Z" fill="#b212ce" data-primary="true"></path>
      <path d="M161.53,431.19s0-5.74-8.01-13.76c-8.01-8.03-13.18-12.61-13.18-12.61,0,0-4.01,13.18,3.44,21.21,5.48,5.63,11.42,10.79,17.75,15.43v-10.27Z" fill="#b212ce" data-primary="true"></path>
      <path d="M172.66,405.16s.61-5.71,9.43-12.83c8.82-7.12,14.44-11.15,14.44-11.15,0,0,2.6,13.52-5.66,20.69-6.05,5.03-12.5,9.55-19.3,13.51l1.09-10.23Z" fill="#b212ce" data-primary="true"></path>
      <path d="M158.57,447.38s1.21-5.6,10.73-11.82c9.52-6.22,15.54-9.56,15.54-9.56,0,0,1.15,13.73-7.8,20.01-6.57,4.37-13.49,8.19-20.69,11.41l2.23-10.04Z" fill="#b212ce" data-primary="true"></path>
      <path d="M161.23,493.51s0-5.74,8.03-13.76c8.03-8.03,13.18-12.61,13.18-12.61,0,0,4.01,13.18-3.44,21.21-5.47,5.64-11.4,10.82-17.74,15.48l-.03-10.32Z" fill="#b212ce" data-primary="true"></path>
      <path d="M161.1,504.76s.81-5.68-5.91-14.78c-6.73-9.11-11.25-14.35-11.25-14.35,0,0-5.91,12.48,.38,21.48,4.62,6.37,9.77,12.33,15.39,17.84l1.39-10.18Z" fill="#b212ce" data-primary="true"></path>
      <path d="M153.19,538.09s0-5.74,8.03-13.75c8.03-8.01,13.18-12.61,13.18-12.61,0,0,4.01,13.17-3.44,21.2-5.47,5.64-11.4,10.82-17.74,15.48l-.03-10.32Z" fill="#b212ce" data-primary="true"></path>
      <path d="M158.57,568.32s-1.48-5.54,4.27-15.34c5.75-9.8,9.56-15.54,9.56-15.54,0,0,7.21,11.74,2.04,21.39-3.88,6.85-8.33,13.36-13.3,19.47l-2.57-9.98Z" fill="#b212ce" data-primary="true"></path>
      <path d="M166.41,596.1c-.21,0-.41-.13-.48-.35-.11-.34-11.14-34.5-13.23-47.11-1.24-7.43,.76-14.2,3.07-22.04,1.71-5.79,3.64-12.34,4.66-20.38,1.19-9.42-.45-18.78-2.03-27.83-1.58-9.04-3.08-17.58-1.47-25.09,1.52-7.08,4.07-13.07,6.76-19.42,2.88-6.78,5.86-13.79,7.52-22.33,1.04-5.82,1.78-11.77,2.18-17.68,.02-.28,.26-.49,.53-.46,.28,.02,.48,.26,.46,.53-.41,5.94-1.14,11.93-2.19,17.79-1.68,8.65-4.68,15.71-7.58,22.54-2.68,6.3-5.2,12.25-6.7,19.24-1.57,7.31-.09,15.76,1.47,24.7,1.6,9.12,3.25,18.56,2.04,28.13-1.03,8.11-2.97,14.71-4.69,20.53-2.28,7.72-4.24,14.4-3.04,21.6,2.08,12.53,13.09,46.62,13.2,46.96,.08,.26-.06,.54-.32,.63-.05,.02-.1,.02-.15,.02Z" fill="#263238"></path>
      <path d="M172.58,409.46c-.15,0-.3-.07-.4-.2-.17-.22-.13-.53,.09-.7l8.65-6.62c.22-.17,.53-.13,.7,.09,.17,.22,.13,.53-.09,.7l-8.65,6.62c-.09,.07-.2,.1-.3,.1Z" fill="#263238"></path>
      <path d="M172.98,401.82c-.17,0-.34-.09-.44-.25l-3.62-6.43c-.14-.24-.05-.54,.19-.68,.24-.14,.54-.05,.68,.19l3.62,6.43c.14,.24,.05,.54-.19,.68-.08,.04-.16,.06-.25,.06Z" fill="#263238"></path>
      <path d="M157.91,453.3c-.15,0-.3-.07-.4-.2-.17-.22-.12-.53,.1-.7,.07-.05,7.32-5.49,14.68-10.87,.22-.16,.54-.12,.7,.11,.16,.22,.11,.54-.11,.7-7.36,5.38-14.6,10.81-14.67,10.86-.09,.07-.2,.1-.3,.1Z" fill="#263238"></path>
      <path d="M161.53,441.96c-.18,0-.36-.1-.44-.27-3.59-6.93-7.89-13.52-12.8-19.59-.17-.21-.14-.53,.07-.7,.22-.17,.53-.14,.7,.07,4.95,6.12,9.3,12.77,12.92,19.76,.13,.25,.03,.55-.21,.67-.07,.04-.15,.06-.23,.06Z" fill="#263238"></path>
      <path d="M161.53,502.15c-.08,0-.16-.02-.24-.06-.24-.13-.33-.43-.2-.68,4.15-7.66,9.39-14.66,15.56-20.81,.2-.19,.51-.2,.71,0,.19,.2,.19,.51,0,.71-6.1,6.08-11.28,13-15.39,20.58-.09,.17-.26,.26-.44,.26Z" fill="#263238"></path>
      <path d="M160.05,510.21c-.19,0-.38-.11-.46-.3-2.18-5.13-4.8-10.11-7.8-14.81-4.13-6.1-4.79-6.97-4.81-7-.17-.22-.12-.53,.1-.7,.22-.17,.53-.12,.7,.1,.02,.03,.66,.88,4.85,7.06,3.03,4.76,5.68,9.79,7.88,14.97,.11,.25,0,.55-.26,.66-.06,.03-.13,.04-.2,.04Z" fill="#263238"></path>
      <path d="M153.19,549.13c-.06,0-.12-.01-.19-.04-.26-.1-.38-.39-.28-.65,1.83-4.56,4.04-9.02,6.55-13.25,2.52-3.94,5.37-7.68,8.5-11.14,.19-.21,.5-.22,.71-.04,.21,.19,.22,.5,.04,.71-3.09,3.42-5.91,7.12-8.39,10.99-2.48,4.17-4.66,8.58-6.48,13.1-.08,.2-.27,.31-.46,.31Z" fill="#263238"></path>
      <path d="M161.16,578.79c-.25,0-.47-.19-.5-.45-.42-4.42,.35-8.89,2.22-12.92,2.45-4.83,5.26-10.91,6.94-14.54l.9-1.94c.12-.25,.41-.36,.66-.24,.25,.12,.36,.41,.24,.66l-.9,1.94c-1.68,3.64-4.49,9.73-6.94,14.56-1.79,3.85-2.52,8.15-2.12,12.39,.03,.27-.18,.52-.45,.54-.02,0-.03,0-.05,0Z" fill="#263238"></path>
      <path d="M120.63,471.96s-.62-3.59,3.53-9.5c4.15-5.91,6.9-9.33,6.9-9.33,0,0,3.95,7.82,.15,13.67-2.82,4.13-5.99,8.02-9.46,11.62l-1.12-6.46Z" fill="#b212ce" data-primary="true"></path>
      <path d="M131.82,493.2s-.62-3.61,3.53-9.5c4.15-5.9,6.96-9.39,6.96-9.39,0,0,3.95,7.82,.13,13.66-2.82,4.13-5.99,8.03-9.46,11.63l-1.17-6.4Z" fill="#b212ce" data-primary="true"></path>
      <path d="M122,478.02s-1.01-3.5-7.3-7.02-10.27-5.42-10.27-5.42c0,0-.16,8.78,5.81,12.39,4.34,2.5,8.88,4.63,13.57,6.37l-1.8-6.31Z" fill="#b212ce" data-primary="true"></path>
      <path d="M135.41,503s-1.36-3.38-8-6.21-10.78-4.32-10.78-4.32c0,0,.75,8.74,7.07,11.69,4.58,2.04,9.32,3.68,14.18,4.92l-2.47-6.09Z" fill="#b212ce" data-primary="true"></path>
      <path d="M138.75,532.18s-.62-3.59-6.52-7.75c-5.9-4.15-9.64-6.47-9.64-6.47,0,0-1.08,8.69,4.43,12.92,4.05,2.95,8.33,5.55,12.82,7.77l-1.09-6.47Z" fill="#b212ce" data-primary="true"></path>
      <path d="M140.07,539.23s-1.14-3.47,2.14-9.9c3.28-6.43,5.5-10.23,5.5-10.23,0,0,5.03,7.2,2.1,13.51-2.21,4.49-4.79,8.79-7.72,12.86l-2.03-6.24Z" fill="#b212ce" data-primary="true"></path>
      <path d="M150.13,568.21s.41-3.62,6.08-8.11c5.66-4.49,9.24-7.02,9.24-7.02,0,0,1.58,8.63-3.71,13.16-3.87,3.17-8.01,6.02-12.36,8.5l.75-6.52Z" fill="#b212ce" data-primary="true"></path>
      <path d="M148.64,559.27s-.62-3.59-6.52-7.76c-5.9-4.17-9.64-6.47-9.64-6.47,0,0-1.08,8.71,4.43,12.92,4.04,2.94,8.31,5.55,12.79,7.77l-1.06-6.46Z" fill="#b212ce" data-primary="true"></path>
      <path d="M148.56,578.8s.31-3.64-4.35-9.15c-4.66-5.51-7.69-8.71-7.69-8.71,0,0-3.25,8.14,1.03,13.63,3.17,3.88,6.66,7.48,10.44,10.78l.56-6.55Z" fill="#b212ce" data-primary="true"></path>
      <path d="M146.6,597.3s-.05,0-.07,0c-.27-.04-.46-.29-.42-.57,.03-.23,3.22-22.79,3.17-30.85-.02-4.59-1.97-8.54-4.23-13.11-1.72-3.48-3.66-7.43-5.18-12.42-1.79-5.88-1.78-11.98-1.78-17.88,0-5.77,.01-11.23-1.75-15.61-1.69-4.2-3.92-7.66-6.28-11.31-2.56-3.97-5.21-8.08-7.21-13.33-1.3-3.59-2.42-7.29-3.33-10.98-.07-.27,.1-.54,.37-.6,.27-.07,.54,.1,.6,.37,.9,3.66,2,7.32,3.29,10.87,1.95,5.14,4.58,9.2,7.11,13.13,2.38,3.69,4.64,7.18,6.36,11.48,1.84,4.57,1.83,10.11,1.83,15.99,0,5.83-.01,11.86,1.74,17.59,1.5,4.92,3.42,8.83,5.12,12.27,2.31,4.68,4.3,8.73,4.33,13.54,.04,8.13-3.15,30.77-3.18,31-.04,.25-.25,.43-.49,.43Z" fill="#263238"></path>
      <path d="M122.46,480.9c-.08,0-.16-.02-.23-.06l-6.13-3.22c-.24-.13-.34-.43-.21-.67,.13-.25,.43-.34,.67-.21l6.13,3.22c.24,.13,.34,.43,.21,.67-.09,.17-.26,.27-.44,.27Z" fill="#263238"></path>
      <path d="M121.38,476.15c-.06,0-.11,0-.17-.03-.26-.09-.4-.38-.3-.64l1.57-4.43c.09-.26,.38-.4,.64-.3,.26,.09,.4,.38,.3,.64l-1.57,4.43c-.07,.21-.27,.33-.47,.33Z" fill="#263238"></path>
      <path d="M136.4,506.79c-.08,0-.15-.02-.23-.05,0,0-5.13-2.62-10.34-5.22-.25-.12-.35-.42-.22-.67,.12-.25,.42-.35,.67-.22,5.22,2.6,10.35,5.22,10.35,5.22,.25,.12,.34,.43,.22,.67-.09,.17-.26,.27-.45,.27Z" fill="#263238"></path>
      <path d="M132.93,500.1s-.1,0-.15-.02c-.26-.08-.41-.36-.33-.63,1.5-4.79,3.51-9.44,5.95-13.83,.13-.24,.44-.33,.68-.19s.33,.44,.19,.68c-2.41,4.33-4.39,8.91-5.87,13.64-.07,.21-.26,.35-.48,.35Z" fill="#263238"></path>
      <path d="M139.46,537.82c-.15,0-.29-.07-.39-.19-3.38-4.29-7.36-8.06-11.82-11.21-.23-.16-.28-.47-.12-.7,.16-.23,.47-.28,.7-.12,4.54,3.21,8.59,7.04,12.03,11.41,.17,.22,.13,.53-.08,.7-.09,.07-.2,.11-.31,.11Z" fill="#263238"></path>
      <path d="M141.22,542.71s-.08,0-.11-.01c-.27-.06-.44-.33-.37-.6,.82-3.5,1.94-6.95,3.32-10.26,1.97-4.33,2.26-4.94,2.27-4.96,.12-.25,.42-.35,.67-.23,.25,.12,.35,.42,.23,.67-.01,.02-.31,.65-2.26,4.93-1.36,3.25-2.46,6.65-3.26,10.09-.05,.23-.26,.39-.49,.39Z" fill="#263238"></path>
      <path d="M149.51,572.59c-.11,0-.22-.04-.31-.11-.21-.17-.25-.49-.08-.7,2-2.49,4.24-4.82,6.65-6.92,1.53-1.14,2.96-2.38,4.27-3.71,.19-.2,.51-.2,.71,0,.2,.19,.2,.51,0,.71-1.35,1.38-2.82,2.65-4.36,3.79-2.34,2.04-4.53,4.32-6.5,6.77-.1,.12-.24,.19-.39,.19Z" fill="#263238"></path>
      <path d="M149.78,566.38c-.17,0-.33-.08-.43-.24-1.62-2.63-3.46-5.16-5.47-7.51-1.95-2.13-4.12-4.12-6.42-5.92-.22-.17-.26-.48-.09-.7,.17-.22,.48-.26,.7-.09,2.34,1.83,4.55,3.86,6.55,6.04,2.05,2.4,3.92,4.97,5.57,7.64,.14,.24,.07,.54-.16,.69-.08,.05-.17,.07-.26,.07Z" fill="#263238"></path>
      <path d="M148,585.84c-.26,0-.48-.2-.5-.46-.2-2.68-1.11-5.27-2.65-7.48-2.02-2.66-4.29-5.97-5.8-8.17l-.91-1.32c-.16-.23-.1-.54,.12-.7,.23-.16,.54-.1,.7,.12l.92,1.33c1.5,2.18,3.77,5.49,5.78,8.14,1.65,2.38,2.62,5.13,2.83,8,.02,.28-.19,.52-.46,.54-.01,0-.03,0-.04,0Z" fill="#263238"></path>
      <g>
        <path d="M171.61,651.36h-33.49c-1.45,0-2.63-1.18-2.63-2.63l-8.31-55.46h55.37l-8.31,55.46c0,1.45-1.18,2.63-2.63,2.63Z" fill="#09bffb" data-secondary="true"></path>
        <path d="M171.61,651.86h-33.49c-1.73,0-3.13-1.4-3.13-3.13l-8.3-55.38c-.02-.14,.02-.29,.12-.4s.23-.17,.38-.17h55.37c.15,0,.28,.06,.38,.17s.14,.26,.12,.4l-8.31,55.46c0,1.65-1.4,3.06-3.12,3.06Zm-43.85-58.09l8.22,54.88c0,1.25,.96,2.21,2.14,2.21h33.49c1.17,0,2.13-.96,2.13-2.13l8.23-54.96h-54.21Z" fill="#263238"></path>
      </g>
    </g>
    <g id="d">
      <path d="M693.87,405.71c6.33-4.65,12.27-9.83,17.74-15.48,7.45-8.01,3.43-21.2,3.43-21.2,0,0-5.14,4.58-13.17,12.61s-8.03,13.75-8.03,13.75l.03,10.32Z" fill="#b212ce" data-primary="true"></path>
      <path d="M705.47,441.46c6.34-4.64,12.27-9.8,17.75-15.43,7.45-8.03,3.44-21.21,3.44-21.21,0,0-5.17,4.58-13.18,12.61-8.01,8.03-8.01,13.76-8.01,13.76v10.27Z" fill="#b212ce" data-primary="true"></path>
      <path d="M695.44,415.39c-6.8-3.96-13.26-8.48-19.3-13.51-8.26-7.17-5.66-20.69-5.66-20.69,0,0,5.62,4.02,14.44,11.15,8.82,7.12,9.43,12.83,9.43,12.83l1.09,10.23Z" fill="#b212ce" data-primary="true"></path>
      <path d="M710.66,457.41c-7.2-3.22-14.13-7.04-20.69-11.41-8.96-6.28-7.8-20.01-7.8-20.01,0,0,6.02,3.34,15.54,9.56,9.52,6.22,10.73,11.82,10.73,11.82l2.23,10.04Z" fill="#b212ce" data-primary="true"></path>
      <path d="M705.74,503.83c-6.33-4.65-12.27-9.83-17.74-15.48-7.45-8.03-3.44-21.21-3.44-21.21,0,0,5.16,4.58,13.18,12.61s8.03,13.76,8.03,13.76l-.03,10.32Z" fill="#b212ce" data-primary="true"></path>
      <path d="M707.29,514.94c5.62-5.51,10.76-11.48,15.39-17.84,6.3-9,.38-21.48,.38-21.48,0,0-4.52,5.25-11.25,14.35-6.73,9.11-5.91,14.78-5.91,14.78l1.39,10.18Z" fill="#b212ce" data-primary="true"></path>
      <path d="M713.78,548.41c-6.33-4.65-12.27-9.83-17.74-15.48-7.45-8.03-3.44-21.2-3.44-21.2,0,0,5.16,4.6,13.18,12.61,8.03,8.01,8.03,13.75,8.03,13.75l-.03,10.32Z" fill="#b212ce" data-primary="true"></path>
      <path d="M705.86,578.29c-4.97-6.1-9.42-12.62-13.3-19.47-5.17-9.65,2.04-21.39,2.04-21.39,0,0,3.81,5.74,9.56,15.54,5.75,9.8,4.27,15.34,4.27,15.34l-2.57,9.98Z" fill="#b212ce" data-primary="true"></path>
      <path d="M700.59,596.1c-.05,0-.1,0-.15-.02-.26-.08-.41-.37-.32-.63,.11-.34,11.11-34.43,13.2-46.96,1.2-7.2-.77-13.87-3.04-21.6-1.72-5.82-3.66-12.42-4.69-20.53-1.21-9.57,.44-19,2.04-28.13,1.57-8.94,3.04-17.39,1.47-24.7-1.5-6.99-4.03-12.94-6.7-19.24-2.9-6.83-5.9-13.89-7.58-22.53-1.05-5.86-1.79-11.85-2.2-17.8-.02-.28,.19-.51,.46-.53,.3-.02,.51,.19,.53,.46,.41,5.92,1.14,11.87,2.18,17.68,1.66,8.53,4.63,15.54,7.51,22.32,2.69,6.34,5.24,12.33,6.76,19.42,1.61,7.5,.12,16.04-1.47,25.08-1.58,9.05-3.22,18.42-2.03,27.83,1.02,8.03,2.95,14.59,4.66,20.38,2.31,7.84,4.31,14.62,3.07,22.04-2.1,12.6-13.12,46.76-13.23,47.11-.07,.21-.26,.35-.48,.35Z" fill="#263238"></path>
      <path d="M694.41,409.46c-.11,0-.21-.03-.3-.1l-8.65-6.62c-.22-.17-.26-.48-.09-.7,.17-.22,.48-.26,.7-.09l8.65,6.62c.22,.17,.26,.48,.09,.7-.1,.13-.25,.2-.4,.2Z" fill="#263238"></path>
      <path d="M694.02,401.82c-.08,0-.17-.02-.25-.06-.24-.14-.33-.44-.19-.68l3.62-6.43c.14-.24,.44-.33,.68-.19,.24,.14,.33,.44,.19,.68l-3.62,6.43c-.09,.16-.26,.25-.44,.25Z" fill="#263238"></path>
      <path d="M709.09,453.3c-.1,0-.21-.03-.3-.1-.07-.05-7.31-5.48-14.67-10.86-.22-.16-.27-.48-.11-.7,.17-.22,.48-.27,.7-.11,7.37,5.38,14.61,10.81,14.68,10.87,.22,.17,.27,.48,.1,.7-.1,.13-.25,.2-.4,.2Z" fill="#263238"></path>
      <path d="M705.47,441.96c-.08,0-.16-.02-.23-.06-.25-.13-.34-.43-.21-.67,3.62-6.99,7.96-13.64,12.92-19.76,.17-.21,.49-.25,.7-.07,.21,.17,.25,.49,.07,.7-4.91,6.07-9.22,12.66-12.8,19.59-.09,.17-.26,.27-.44,.27Z" fill="#263238"></path>
      <path d="M705.47,502.15c-.18,0-.35-.09-.44-.26-4.11-7.57-9.28-14.5-15.39-20.58-.2-.2-.2-.51,0-.71,.2-.2,.51-.2,.71,0,6.17,6.15,11.41,13.15,15.56,20.81,.13,.24,.04,.55-.2,.68-.08,.04-.16,.06-.24,.06Z" fill="#263238"></path>
      <path d="M706.95,510.21c-.07,0-.13-.01-.2-.04-.25-.11-.37-.4-.26-.66,2.2-5.18,4.85-10.21,7.87-14.96,4.2-6.19,4.83-7.04,4.86-7.07,.17-.22,.48-.26,.7-.1,.22,.17,.26,.48,.1,.7-.03,.03-.68,.9-4.82,7.01-2.98,4.69-5.61,9.67-7.79,14.8-.08,.19-.27,.3-.46,.3Z" fill="#263238"></path>
      <path d="M713.81,549.13c-.2,0-.39-.12-.46-.31-1.82-4.52-4-8.93-6.48-13.12-2.47-3.86-5.29-7.56-8.38-10.98-.18-.21-.17-.52,.04-.71,.2-.18,.52-.17,.71,.04,3.12,3.46,5.98,7.2,8.49,11.12,2.52,4.24,4.73,8.7,6.56,13.27,.1,.26-.02,.55-.28,.65-.06,.02-.12,.04-.19,.04Z" fill="#263238"></path>
      <path d="M705.84,578.79s-.03,0-.05,0c-.28-.03-.48-.27-.45-.54,.4-4.25-.33-8.54-2.13-12.41-2.44-4.81-5.26-10.9-6.94-14.54l-.9-1.94c-.12-.25,0-.55,.24-.66,.25-.12,.55,0,.66,.24l.9,1.94c1.68,3.63,4.49,9.71,6.93,14.52,1.88,4.05,2.64,8.52,2.22,12.94-.02,.26-.24,.45-.5,.45Z" fill="#263238"></path>
      <path d="M745.25,478.42c-3.47-3.6-6.64-7.49-9.46-11.62-3.8-5.85,.15-13.67,.15-13.67,0,0,2.75,3.41,6.9,9.33s3.53,9.5,3.53,9.5l-1.12,6.46Z" fill="#b212ce" data-primary="true"></path>
      <path d="M734.01,499.6c-3.47-3.61-6.64-7.5-9.46-11.63-3.81-5.84,.13-13.66,.13-13.66,0,0,2.81,3.49,6.96,9.39,4.15,5.9,3.53,9.5,3.53,9.5l-1.17,6.4Z" fill="#b212ce" data-primary="true"></path>
      <path d="M743.19,484.33c4.69-1.74,9.23-3.87,13.57-6.37,5.97-3.61,5.81-12.39,5.81-12.39,0,0-3.98,1.91-10.27,5.42-6.3,3.52-7.3,7.02-7.3,7.02l-1.8,6.31Z" fill="#b212ce" data-primary="true"></path>
      <path d="M729.12,509.09c4.85-1.24,9.6-2.89,14.18-4.92,6.31-2.96,7.07-11.69,7.07-11.69,0,0-4.14,1.49-10.78,4.32-6.64,2.82-8,6.21-8,6.21l-2.47,6.09Z" fill="#b212ce" data-primary="true"></path>
      <path d="M727.16,538.65c4.48-2.23,8.77-4.83,12.82-7.77,5.51-4.23,4.43-12.92,4.43-12.92,0,0-3.74,2.32-9.64,6.47-5.9,4.15-6.52,7.75-6.52,7.75l-1.09,6.47Z" fill="#b212ce" data-primary="true"></path>
      <path d="M724.91,545.47c-2.92-4.06-5.51-8.37-7.72-12.86-2.93-6.31,2.1-13.51,2.1-13.51,0,0,2.22,3.8,5.5,10.23,3.28,6.43,2.14,9.9,2.14,9.9l-2.03,6.24Z" fill="#b212ce" data-primary="true"></path>
      <path d="M717.62,574.73c-4.35-2.48-8.48-5.32-12.36-8.5-5.29-4.52-3.71-13.16-3.71-13.16,0,0,3.58,2.53,9.24,7.02,5.66,4.49,6.08,8.11,6.08,8.11l.75,6.52Z" fill="#b212ce" data-primary="true"></path>
      <path d="M717.3,565.73c4.47-2.23,8.75-4.83,12.79-7.77,5.51-4.21,4.43-12.92,4.43-12.92,0,0-3.74,2.31-9.64,6.47-5.9,4.17-6.52,7.76-6.52,7.76l-1.06,6.46Z" fill="#b212ce" data-primary="true"></path>
      <path d="M719,585.34c3.77-3.29,7.26-6.9,10.44-10.78,4.29-5.48,1.03-13.63,1.03-13.63,0,0-3.03,3.19-7.69,8.71s-4.35,9.15-4.35,9.15l.56,6.55Z" fill="#b212ce" data-primary="true"></path>
      <path d="M720.4,597.3c-.25,0-.46-.18-.49-.43-.03-.23-3.23-22.87-3.18-31,.03-4.82,2.02-8.86,4.33-13.55,1.7-3.45,3.62-7.35,5.12-12.27,1.75-5.74,1.74-11.76,1.74-17.59,0-5.87-.01-11.42,1.83-15.99,1.73-4.29,3.98-7.78,6.36-11.48,2.54-3.93,5.16-7.99,7.11-13.14,1.29-3.54,2.39-7.19,3.29-10.87,.07-.27,.33-.43,.6-.37,.27,.07,.43,.34,.37,.6-.91,3.71-2.03,7.4-3.33,10.98-2,5.25-4.65,9.36-7.21,13.33-2.36,3.65-4.58,7.1-6.28,11.31-1.76,4.39-1.76,9.84-1.75,15.61,0,5.9,.01,12.01-1.78,17.88-1.52,5-3.47,8.94-5.18,12.42-2.25,4.57-4.2,8.52-4.23,13.11-.04,8.06,3.14,30.62,3.17,30.85,.04,.27-.15,.53-.42,.57-.02,0-.05,0-.07,0Z" fill="#263238"></path>
      <path d="M744.54,480.9c-.18,0-.35-.1-.44-.27-.13-.24-.03-.55,.21-.67l6.13-3.22c.24-.13,.55-.04,.67,.21,.13,.24,.03,.55-.21,.67l-6.13,3.22c-.07,.04-.15,.06-.23,.06Z" fill="#263238"></path>
      <path d="M745.62,476.15c-.21,0-.4-.13-.47-.33l-1.57-4.43c-.09-.26,.04-.55,.3-.64,.26-.09,.55,.04,.64,.3l1.57,4.43c.09,.26-.04,.55-.3,.64-.06,.02-.11,.03-.17,.03Z" fill="#263238"></path>
      <path d="M730.6,506.79c-.18,0-.36-.1-.45-.27-.13-.25-.03-.55,.22-.67,0,0,5.13-2.62,10.35-5.22,.25-.12,.55-.02,.67,.22,.12,.25,.02,.55-.22,.67-5.21,2.6-10.34,5.22-10.34,5.22-.07,.04-.15,.05-.23,.05Z" fill="#263238"></path>
      <path d="M734.07,500.1c-.21,0-.41-.14-.48-.35-1.48-4.72-3.46-9.31-5.87-13.64-.13-.24-.05-.54,.19-.68,.24-.13,.54-.05,.68,.19,2.45,4.38,4.45,9.04,5.95,13.83,.08,.26-.06,.54-.33,.63-.05,.02-.1,.02-.15,.02Z" fill="#263238"></path>
      <path d="M727.54,537.82c-.11,0-.22-.04-.31-.11-.22-.17-.25-.49-.08-.7,3.44-4.36,7.49-8.2,12.03-11.41,.22-.16,.54-.11,.7,.12,.16,.23,.11,.54-.12,.7-4.46,3.15-8.44,6.92-11.82,11.21-.1,.12-.25,.19-.39,.19Z" fill="#263238"></path>
      <path d="M725.78,542.71c-.23,0-.43-.16-.49-.39-.81-3.44-1.91-6.84-3.27-10.11-1.94-4.27-2.24-4.89-2.25-4.91-.12-.25-.02-.55,.23-.67,.25-.12,.55-.02,.67,.23,.01,.02,.31,.63,2.27,4.95,1.39,3.33,2.51,6.78,3.33,10.28,.06,.27-.1,.54-.37,.6-.04,0-.08,.01-.11,.01Z" fill="#263238"></path>
      <path d="M717.49,572.59c-.15,0-.29-.06-.39-.19-1.96-2.45-4.16-4.73-6.53-6.79-1.51-1.12-2.98-2.39-4.33-3.77-.19-.2-.19-.51,0-.71,.2-.19,.51-.19,.71,0,1.31,1.34,2.74,2.58,4.24,3.69,2.45,2.13,4.69,4.46,6.69,6.95,.17,.22,.14,.53-.08,.7-.09,.07-.2,.11-.31,.11Z" fill="#263238"></path>
      <path d="M717.22,566.38c-.09,0-.18-.02-.26-.07-.24-.15-.31-.45-.16-.69,1.65-2.67,3.52-5.24,5.56-7.63,2.02-2.2,4.22-4.23,6.56-6.06,.22-.17,.53-.13,.7,.09,.17,.22,.13,.53-.09,.7-2.3,1.79-4.46,3.78-6.43,5.93-1.99,2.34-3.83,4.87-5.46,7.49-.09,.15-.26,.24-.43,.24Z" fill="#263238"></path>
      <path d="M719,585.84s-.03,0-.04,0c-.28-.02-.48-.26-.46-.54,.21-2.86,1.19-5.62,2.82-7.98,2.03-2.67,4.29-5.97,5.79-8.15l.92-1.34c.16-.23,.47-.28,.7-.12,.23,.16,.28,.47,.12,.7l-.92,1.33c-1.5,2.19-3.78,5.5-5.81,8.17-1.52,2.19-2.44,4.78-2.63,7.46-.02,.26-.24,.46-.5,.46Z" fill="#263238"></path>
      <g>
        <path d="M692.76,648.73l-8.31-55.46h55.37s-8.31,55.46-8.31,55.46c0,1.45-1.18,2.63-2.63,2.63h-33.49c-1.45,0-2.63-1.18-2.63-2.63Z" fill="#09bffb" data-secondary="true"></path>
        <path d="M728.88,651.86h-33.49c-1.71,0-3.11-1.38-3.13-3.09l-8.3-55.42c-.02-.14,.02-.29,.12-.4s.23-.17,.38-.17h55.37c.15,0,.28,.06,.38,.17s.14,.26,.12,.4l-8.31,55.46c0,1.65-1.4,3.06-3.13,3.06Zm-43.85-58.09l8.22,54.88s0,.05,0,.07c0,1.17,.96,2.13,2.13,2.13h33.49c1.18,0,2.13-.96,2.13-2.13l8.23-54.96h-54.21Z" fill="#263238"></path>
      </g>
    </g>
    <g id="e">
      <g opacity=".3">
        <path d="M762.46,507h-203.21c-.28,0-.5-.22-.5-.5V138.45c0-54.88,44.65-99.53,99.54-99.53,57.7,0,104.63,46.94,104.63,104.63V506.3c.03,.06,.04,.13,.04,.21,0,.28-.22,.5-.5,.5Zm-202.71-1h202.17V143.55c0-57.14-46.49-103.63-103.63-103.63s-98.54,44.2-98.54,98.53V506Z" fill="#263238"></path>
        <path d="M582.19,505.97c-.28,0-.5-.22-.5-.5V144.36c0-43.63,35.49-79.14,79.12-79.17,43.65,0,79.17,35.51,79.17,79.17V505.41c0,.28-.22,.5-.5,.5s-.5-.22-.5-.5V144.36c0-43.1-35.07-78.17-78.17-78.17-43.08,.02-78.12,35.09-78.12,78.17V505.47c0,.28-.22,.5-.5,.5Z" fill="#263238"></path>
        <path d="M660.85,506.46c-.28,0-.5-.22-.5-.5V39.41c0-.28,.22-.5,.5-.5s.5,.22,.5,.5V505.96c0,.28-.22,.5-.5,.5Z" fill="#263238"></path>
        <path d="M761.36,129.78h-200.76c-.28,0-.5-.22-.5-.5s.22-.5,.5-.5h200.76c.28,0,.5,.22,.5,.5s-.22,.5-.5,.5Z" fill="#263238"></path>
        <path d="M761.36,193.15h-200.76c-.28,0-.5-.22-.5-.5s.22-.5,.5-.5h200.76c.28,0,.5,.22,.5,.5s-.22,.5-.5,.5Z" fill="#263238"></path>
        <path d="M761.36,256.52h-200.76c-.28,0-.5-.22-.5-.5s.22-.5,.5-.5h200.76c.28,0,.5,.22,.5,.5s-.22,.5-.5,.5Z" fill="#263238"></path>
        <path d="M761.36,319.9h-200.76c-.28,0-.5-.22-.5-.5s.22-.5,.5-.5h200.76c.28,0,.5,.22,.5,.5s-.22,.5-.5,.5Z" fill="#263238"></path>
        <path d="M761.36,383.27h-200.76c-.28,0-.5-.22-.5-.5s.22-.5,.5-.5h200.76c.28,0,.5,.22,.5,.5s-.22,.5-.5,.5Z" fill="#263238"></path>
        <path d="M761.36,446.63h-200.76c-.28,0-.5-.22-.5-.5s.22-.5,.5-.5h200.76c.28,0,.5,.22,.5,.5s-.22,.5-.5,.5Z" fill="#263238"></path>
        <path d="M716.33,88.21c-.14,0-.27-.06-.37-.16-.19-.2-.17-.52,.03-.71l18.2-16.58c.21-.19,.52-.17,.71,.03,.19,.2,.17,.52-.03,.71l-18.2,16.58c-.1,.09-.22,.13-.34,.13Z" fill="#263238"></path>
        <path d="M606.15,88.21c-.12,0-.24-.04-.34-.13l-18.21-16.58c-.2-.19-.22-.5-.03-.71,.19-.2,.5-.22,.71-.03l18.21,16.58c.2,.19,.22,.5,.03,.71-.1,.11-.23,.16-.37,.16Z" fill="#263238"></path>
      </g>
    </g>
    <g id="f">
      <g opacity=".3">
        <path d="M440.63,112.49h-19.38c-2.16,0-4.14-1.1-5.3-2.92-5.56-8.78-14.66-24.57-13.24-31.66,2.01-9.85,28.11-26.93,29.22-27.65,.17-.11,.39-.11,.56,0,1.02,.71,24.93,17.53,26.72,26.82,1.49,7.47-8.77,25.17-13.25,32.43-1.15,1.86-3.15,2.97-5.33,2.97Zm-8.43-61.21c-2.88,1.91-26.68,17.91-28.5,26.83-1.41,7,8.69,23.96,13.1,30.92,.97,1.54,2.64,2.46,4.46,2.46h19.38c1.84,0,3.51-.94,4.48-2.5,4.42-7.16,14.54-24.59,13.12-31.71-1.62-8.38-23.32-24.06-26.04-26Z" fill="#263238"></path>
      </g>
      <g opacity=".3">
        <path d="M414.36,119.77c-1,0-2-.24-2.93-.73-7.4-3.85-24.87-13.6-27.29-20.78-3.19-9.54,10.87-37.39,11.47-38.57,.09-.18,.29-.29,.49-.27,1.24,.11,30.37,2.72,36.56,9.88,5.02,5.8,4.98,26.21,4.73,34.71-.07,2.16-1.27,4.16-3.15,5.22l-16.76,9.7c-.97,.56-2.05,.84-3.13,.84Zm-18.01-59.32c-1.54,3.09-14.15,28.86-11.26,37.49,2.37,7.03,21.12,17.25,26.81,20.22,1.61,.85,3.51,.81,5.09-.09l16.76-9.7s0,0,0,0c1.57-.9,2.59-2.58,2.64-4.39,.25-8.38,.3-28.48-4.49-34.02-5.59-6.46-32.24-9.19-35.56-9.51Z" fill="#263238"></path>
      </g>
      <g opacity=".3">
        <path d="M404.26,129.77c-9.41,0-21.76-.77-26.05-4.54-7.46-6.66-9.27-37.81-9.35-39.13-.01-.2,.1-.39,.29-.48,1.12-.52,27.64-12.82,36.59-9.72,7.29,2.53,17.43,20.21,21.46,27.7,1.01,1.9,.97,4.15-.09,6.01,0,0,0,0,0,0l-9.68,16.78c-1.06,1.89-2.99,3.09-5.17,3.21-2.08,.09-4.88,.17-8,.17Zm-34.38-43.39c.22,3.45,2.24,32.08,8.99,38.1,5.59,4.91,26.92,4.39,33.33,4.12,1.82-.09,3.45-1.1,4.34-2.7l9.68-16.78c.89-1.57,.92-3.45,.08-5.05-3.09-5.76-13.75-24.74-20.9-27.23-8.06-2.8-32.49,8.15-35.53,9.54Zm56.79,22.98h0Z" fill="#263238"></path>
      </g>
      <g opacity=".3">
        <path d="M388.15,151.56c-.58,0-1.12-.05-1.62-.15-9.85-2-26.93-28.11-27.65-29.22-.11-.17-.11-.39,0-.56,.71-1.02,17.53-24.93,26.82-26.71,7.46-1.49,25.17,8.77,32.43,13.25,1.86,1.15,2.97,3.15,2.97,5.33h0v19.36c0,2.16-1.09,4.14-2.92,5.3-6.58,4.18-22,13.39-30.04,13.39Zm-28.24-29.63c1.91,2.88,17.91,26.69,26.82,28.5,7.04,1.43,23.97-8.69,30.92-13.1,1.54-.97,2.46-2.64,2.46-4.46v-19.36c0-1.84-.94-3.51-2.5-4.48-7.16-4.42-24.59-14.54-31.71-13.12-8.38,1.6-24.06,23.31-26,26.02Z" fill="#263238"></path>
      </g>
      <g opacity=".3">
        <path d="M403.45,170.52c-11.49,0-34.07-11.4-35.13-11.94-.18-.09-.29-.29-.27-.49,.11-1.24,2.72-30.35,9.87-36.55,5.8-5.02,26.21-4.98,34.72-4.73,2.17,.05,4.12,1.2,5.22,3.07h0s9.7,16.84,9.7,16.84c1.08,1.87,1.12,4.13,.11,6.04-3.85,7.4-13.58,24.88-20.79,27.29-.97,.32-2.13,.47-3.43,.47Zm-34.38-12.68c3.09,1.54,28.86,14.15,37.49,11.26,7.05-2.36,17.26-21.11,20.22-26.81,.85-1.61,.81-3.5-.09-5.08l-9.69-16.83c-.92-1.57-2.56-2.53-4.38-2.58-8.39-.25-28.5-.3-34.04,4.49-6.45,5.59-9.18,32.23-9.49,35.54Z" fill="#263238"></path>
      </g>
      <g opacity=".3">
        <path d="M394.69,185.27c-.19,0-.37-.11-.45-.29-.53-1.12-12.82-27.65-9.72-36.6,2.5-7.26,20.21-17.41,27.7-21.44,1.9-1.01,4.15-.97,6.01,.09h0s16.78,9.68,16.78,9.68c1.9,1.06,3.1,2.99,3.21,5.17,.36,8.33,.65,28.31-4.37,34.04-6.66,7.54-37.81,9.28-39.13,9.35,0,0-.02,0-.03,0Zm20.45-58.07c-.84,0-1.68,.2-2.45,.61-7.39,3.97-24.84,13.96-27.23,20.89-2.8,8.08,8.15,32.52,9.54,35.55,3.45-.21,32.08-2.17,38.1-8.99,4.91-5.61,4.39-26.93,4.12-33.33-.09-1.83-1.1-3.45-2.7-4.34l-16.78-9.68c-.81-.46-1.7-.69-2.59-.69Z" fill="#263238"></path>
      </g>
      <g opacity=".3">
        <path d="M430.55,195.34c-.1,0-.2-.03-.29-.09-1.02-.71-24.93-17.53-26.71-26.83-1.5-7.49,8.77-25.17,13.25-32.42,1.15-1.86,3.14-2.97,5.33-2.97h19.36c2.16,0,4.15,1.1,5.3,2.92,4.48,7.04,14.75,24.23,13.24,31.64-2,9.86-28.11,26.94-29.22,27.66-.08,.05-.18,.08-.27,.08Zm-8.41-61.31c-1.84,0-3.51,.94-4.48,2.5-4.42,7.15-14.55,24.55-13.12,31.7,1.6,8.39,23.31,24.08,26.02,26.01,2.88-1.91,26.69-17.91,28.5-26.84,1.48-7.25-9.65-25.49-13.1-30.91-.97-1.54-2.64-2.46-4.46-2.46h-19.36Z" fill="#263238"></path>
      </g>
      <g opacity=".3">
        <path d="M466.7,186.1s-.03,0-.04,0c-1.24-.11-30.35-2.73-36.55-9.88-5.02-5.79-4.98-26.2-4.73-34.71,.07-2.19,1.24-4.14,3.13-5.24h0s16.78-9.68,16.78-9.68c1.87-1.08,4.13-1.13,6.04-.13,7.41,3.87,24.9,13.64,27.29,20.8,3.19,9.53-10.87,37.38-11.47,38.56-.08,.17-.26,.27-.45,.27Zm-37.69-48.96h0c-1.59,.92-2.57,2.57-2.63,4.4-.25,8.39-.3,28.5,4.49,34.02,5.59,6.45,32.22,9.19,35.54,9.51,1.54-3.09,14.15-28.86,11.26-37.49-2.34-7.01-21.11-17.26-26.81-20.23-1.61-.84-3.5-.8-5.08,.11l-16.78,9.68Z" fill="#263238"></path>
      </g>
      <g opacity=".3">
        <path d="M460.58,170.19c-1.37,0-2.59-.15-3.59-.5-7.23-2.51-17.42-20.21-21.46-27.7-1.02-1.93-.98-4.2,.11-6.09l9.7-16.79c1.08-1.87,3.02-3.03,5.17-3.12,8.33-.36,28.33-.65,34.04,4.35,7.54,6.67,9.28,37.81,9.35,39.14,.01,.2-.1,.39-.29,.48-1,.47-22.07,10.23-33.03,10.23Zm-2.26-53.36c-3.27,0-6.05,.09-7.76,.16-1.81,.07-3.44,1.05-4.35,2.62l-9.7,16.79h0c-.92,1.59-.96,3.5-.09,5.12,3.99,7.39,14.01,24.83,20.9,27.23,8.08,2.79,32.53-8.17,35.56-9.55-.21-3.45-2.17-32.06-8.99-38.1-4.09-3.59-16.63-4.27-25.57-4.27Zm-22.24,19.32h0Z" fill="#263238"></path>
      </g>
      <g opacity=".3">
        <path d="M475.41,150.73c-8.16,0-24.03-9.22-30.8-13.4-1.85-1.16-2.96-3.15-2.96-5.33h0v-19.38c0-2.16,1.1-4.14,2.92-5.29,7.04-4.48,24.23-14.75,31.64-13.24,9.86,2,26.94,28.09,27.66,29.2,.11,.17,.11,.39,0,.56-.71,1.02-17.53,24.93-26.83,26.72-.5,.1-1.04,.15-1.63,.15Zm-32.76-18.73c0,1.83,.93,3.51,2.49,4.48,7.16,4.42,24.59,14.54,31.71,13.12,8.39-1.62,24.08-23.32,26.01-26.04-1.91-2.88-17.91-26.68-26.84-28.49-7.25-1.48-25.49,9.65-30.91,13.1-1.54,.97-2.45,2.63-2.46,4.44v19.38Z" fill="#263238"></path>
      </g>
      <g opacity=".3">
        <path d="M456.03,128.87c-2.27,0-4.29-.04-5.89-.09-2.19-.07-4.15-1.25-5.24-3.15l-9.68-16.78c-1.08-1.87-1.13-4.14-.13-6.05,3.88-7.41,13.66-24.89,20.8-27.29,9.53-3.19,37.38,10.88,38.57,11.48,.18,.09,.29,.29,.27,.49-.11,1.24-2.73,30.35-9.88,36.56-4.71,4.08-19.04,4.82-28.82,4.82Zm3.31-52.84c-1.2,0-2.25,.13-3.13,.43-6.8,2.28-16.41,19.51-20.23,26.81-.84,1.61-.8,3.51,.11,5.09l9.68,16.78s0,0,0,0c.92,1.6,2.56,2.59,4.4,2.65,6.54,.19,28.33,.44,34.02-4.49,6.45-5.6,9.19-32.24,9.51-35.56-2.78-1.39-23.84-11.7-34.36-11.7Z" fill="#263238"></path>
      </g>
      <g opacity=".3">
        <path d="M447.66,119.32c-1.09,0-2.17-.28-3.13-.84l-16.79-9.68c-1.86-1.08-3.03-3.02-3.12-5.17-.36-8.33-.65-28.32,4.35-34.04,6.67-7.46,37.81-9.27,39.13-9.35,.2,0,.39,.1,.48,.29,.53,1.12,12.82,27.65,9.73,36.59-2.53,7.29-20.21,17.43-27.7,21.46-.92,.5-1.94,.74-2.96,.74Zm20.16-58.06c-3.45,.22-32.07,2.24-38.1,8.99-4.9,5.59-4.38,26.93-4.1,33.33,.07,1.81,1.05,3.44,2.62,4.35l16.79,9.68s0,0,0,0c1.56,.91,3.52,.94,5.11,.08,5.76-3.1,24.75-13.76,27.23-20.91,2.79-8.06-8.16-32.49-9.55-35.53Z" fill="#263238"></path>
      </g>
      <g opacity=".3">
        <path d="M431.37,213.42c-49.99,0-90.67-40.67-90.67-90.67s40.67-90.67,90.67-90.67,90.67,40.67,90.67,90.67-40.67,90.67-90.67,90.67Zm0-180.33c-49.44,0-89.67,40.22-89.67,89.67s40.22,89.67,89.67,89.67,89.67-40.22,89.67-89.67-40.22-89.67-89.67-89.67Z" fill="#263238"></path>
      </g>
      <g opacity=".3">
        <path d="M432.2,51.18c-.28,0-.5-.22-.5-.5v-18.09c0-.28,.22-.5,.5-.5s.5,.22,.5,.5v18.09c0,.28-.22,.5-.5,.5Z" fill="#263238"></path>
      </g>
      <path d="M430.55,213.42c-.28,0-.5-.22-.5-.5v-18.08c0-.28,.22-.5,.5-.5s.5,.22,.5,.5v18.08c0,.28-.22,.5-.5,.5Z" fill="#999"></path>
      <g opacity=".3">
        <path d="M521.54,124.08h-18.08c-.28,0-.5-.22-.5-.5s.22-.5,.5-.5h18.08c.28,0,.5,.22,.5,.5s-.22,.5-.5,.5Z" fill="#263238"></path>
      </g>
      <g opacity=".3">
        <path d="M359.3,122.42h-18.09c-.28,0-.5-.22-.5-.5s.22-.5,.5-.5h18.09c.28,0,.5,.22,.5,.5s-.22,.5-.5,.5Z" fill="#263238"></path>
      </g>
      <g opacity=".3">
        <path d="M386.68,78.72c-.13,0-.26-.05-.35-.15l-18.34-18.34c-.2-.2-.2-.51,0-.71s.51-.2,.71,0l18.34,18.34c.2,.2,.2,.51,0,.71-.1,.1-.23,.15-.35,.15Z" fill="#263238"></path>
      </g>
      <g opacity=".3">
        <path d="M495.05,188.21c-.13,0-.26-.05-.35-.15l-20-20.01c-.2-.2-.2-.51,0-.71,.2-.2,.51-.2,.71,0l20,20.01c.2,.2,.2,.51,0,.71-.1,.1-.23,.15-.35,.15Z" fill="#263238"></path>
      </g>
      <g opacity=".3">
        <path d="M475.6,80.93c-.13,0-.26-.05-.35-.15-.2-.2-.2-.51,0-.71l20.01-20c.2-.2,.51-.2,.71,0s.2,.51,0,.71l-20.01,20c-.1,.1-.23,.15-.35,.15Z" fill="#263238"></path>
      </g>
      <g opacity=".3">
        <path d="M367.21,186.54c-.13,0-.26-.05-.35-.15-.2-.2-.2-.51,0-.71l19.47-19.45c.2-.2,.51-.2,.71,0s.2,.51,0,.71l-19.47,19.45c-.1,.1-.23,.15-.35,.15Z" fill="#263238"></path>
      </g>
    </g>
    <g id="g">
      <g opacity=".3">
        <path d="M301.96,507H98.75c-.28,0-.5-.22-.5-.5V138.45c0-54.88,44.65-99.53,99.53-99.53,57.7,0,104.63,46.94,104.63,104.63V506.29c.03,.06,.04,.13,.04,.21,0,.28-.22,.5-.5,.5Zm-202.71-1h202.17V143.55c0-57.14-46.49-103.63-103.63-103.63s-98.53,44.2-98.53,98.53V506Z" fill="#263238"></path>
        <path d="M121.62,505.97c-.28,0-.5-.22-.5-.5V144.24c.03-43.63,35.54-79.11,79.17-79.11h.06c21.21,.02,41.08,8.27,56.02,23.23,14.94,14.96,23.16,34.85,23.14,56V505.41c0,.28-.22,.5-.5,.5s-.5-.22-.5-.5V144.36c.02-20.88-8.1-40.51-22.85-55.29-14.75-14.77-34.38-22.92-55.25-22.94h-.06c-43.13,0-78.19,35.02-78.22,78.11V505.47c0,.28-.22,.5-.5,.5Z" fill="#263238"></path>
        <path d="M200.34,506.46c-.28,0-.5-.22-.5-.5V39.41c0-.28,.22-.5,.5-.5s.5,.22,.5,.5V505.96c0,.28-.22,.5-.5,.5Z" fill="#263238"></path>
        <path d="M300.87,129.78H100.1c-.28,0-.5-.22-.5-.5s.22-.5,.5-.5h200.77c.28,0,.5,.22,.5,.5s-.22,.5-.5,.5Z" fill="#263238"></path>
        <path d="M300.87,193.15H100.1c-.28,0-.5-.22-.5-.5s.22-.5,.5-.5h200.77c.28,0,.5,.22,.5,.5s-.22,.5-.5,.5Z" fill="#263238"></path>
        <path d="M300.87,256.52H100.1c-.28,0-.5-.22-.5-.5s.22-.5,.5-.5h200.77c.28,0,.5,.22,.5,.5s-.22,.5-.5,.5Z" fill="#263238"></path>
        <path d="M300.87,319.9H100.1c-.28,0-.5-.22-.5-.5s.22-.5,.5-.5h200.77c.28,0,.5,.22,.5,.5s-.22,.5-.5,.5Z" fill="#263238"></path>
        <path d="M300.87,383.27H100.1c-.28,0-.5-.22-.5-.5s.22-.5,.5-.5h200.77c.28,0,.5,.22,.5,.5s-.22,.5-.5,.5Z" fill="#263238"></path>
        <path d="M300.87,446.63H100.1c-.28,0-.5-.22-.5-.5s.22-.5,.5-.5h200.77c.28,0,.5,.22,.5,.5s-.22,.5-.5,.5Z" fill="#263238"></path>
        <path d="M255.82,88.21c-.14,0-.27-.06-.37-.16-.19-.2-.17-.52,.03-.71l18.21-16.58c.2-.19,.52-.17,.71,.03s.17,.52-.03,.71l-18.21,16.58c-.1,.09-.22,.13-.34,.13Z" fill="#263238"></path>
        <path d="M145.64,88.21c-.12,0-.24-.04-.34-.13l-18.2-16.58c-.2-.19-.22-.5-.03-.71,.19-.2,.5-.22,.71-.03l18.2,16.58c.2,.19,.22,.5,.03,.71-.1,.11-.23,.16-.37,.16Z" fill="#263238"></path>
      </g>
    </g>
    <g id="h">
      <path d="M782.34,651.86h-155.2c-.28,0-.5-.22-.5-.5s.22-.5,.5-.5h155.2c.28,0,.5,.22,.5,.5s-.22,.5-.5,.5Z" fill="#263238"></path>
      <path d="M610.88,651.86H89.1c-.28,0-.5-.22-.5-.5s.22-.5,.5-.5H610.88c.28,0,.5,.22,.5,.5s-.22,.5-.5,.5Z" fill="#263238"></path>
    </g>
  </g>
  <g>
    <g>
      <path d="M572.82,578.29c-17.43,24.4-46.34,46.31-65.8,59.44-12.36,8.34-26.88,12.87-41.79,13.01l-59.03,.56c-47.46-.8-94.63-53.91-94.63-53.91l4.99-22.44,256.26,3.33Z" fill="#09bffb" data-secondary="true"></path>
      <path d="M406.2,651.82c-47.14-.79-94.54-53.54-95.01-54.07-.11-.12-.15-.28-.11-.44l4.99-22.44c.05-.23,.25-.39,.49-.39h0l256.26,3.33c.19,0,.36,.11,.44,.27s.07,.37-.04,.52c-17.19,24.06-45.34,45.67-65.93,59.57-12.49,8.43-27.03,12.96-42.07,13.1l-59.03,.56Zm-94.09-54.55c3.16,3.47,48.82,52.79,94.1,53.55l59.02-.56c14.84-.14,29.19-4.61,41.52-12.93,20.3-13.7,47.96-34.91,65.11-58.54l-254.9-3.31-4.85,21.79Z" fill="#263238"></path>
    </g>
    <g>
      <path d="M420.41,616.87c-14.48,2.35-25.8,4.44-29.33,5.72,0,0-34.48,13.93-62.87,14.06-.26,0-.52,.05-.76,.14-1.7,.62-9.1,3.16-16,3.37-.55,.02-1.08,.21-1.49,.58-3.14,2.77-17.21,14.57-23.47,9.2-1.02-.87-1.61-2.14-1.77-3.47-.51-4.37-1.32-17.66,6.53-24.93,0,0,.7-13.71,18.63-12.66l13.01,2.11s8.09,1.65,10.55-7.61l49.41-12.73" fill="#fff"></path>
      <path d="M290.56,651.82c-1.66,0-3.16-.45-4.4-1.51-1.07-.92-1.76-2.27-1.94-3.8-.47-4.03-1.39-17.7,6.54-25.22,.1-1.02,.73-5.44,4.57-8.88,3.41-3.05,8.3-4.41,14.57-4.04l13.06,2.12c.33,.07,7.68,1.43,9.98-7.25l.08-.28,49.69-12.8,.25,.97-49.12,12.66c-2.64,9.29-10.97,7.7-11.05,7.69l-12.99-2.11c-5.93-.35-10.58,.92-13.78,3.78-3.96,3.54-4.27,8.36-4.27,8.41v.2s-.16,.14-.16,.14c-7.74,7.17-6.83,20.56-6.37,24.5,.15,1.28,.72,2.4,1.6,3.15,5.99,5.14,20.05-6.76,22.81-9.2,.49-.43,1.13-.68,1.81-.7,6.9-.2,14.41-2.82,15.84-3.34,.3-.11,.61-.16,.93-.17,27.98-.13,62.35-13.88,62.69-14.02,3.24-1.17,13.14-3.1,29.44-5.75l.16,.99c-16.24,2.64-26.08,4.56-29.24,5.7-.33,.13-34.87,13.96-63.04,14.09-.21,0-.4,.04-.59,.11-1.46,.53-9.11,3.19-16.16,3.4-.44,.01-.86,.17-1.18,.45-3.25,2.87-12.78,10.72-19.72,10.72Z" fill="#263238"></path>
    </g>
    <g>
      <path d="M364.43,547.43s-42.81-6.08-69.2-.11c-5.56,1.26-10.49,4.59-13.38,9.5-3.14,5.34-4.36,12.99,4.47,21.49,0,0,17.92,23.79,69.68,34.63l160.16-4.79v-7.26s26.13,3.83,54.83-16.73c0,0,22.7-12.47,8.99-28.72,0,0-10.69-18.5-83.52-7.36l-66.01-11.08-66.01,10.43Z" fill="#09bffb" data-secondary="true"></path>
      <path d="M356,613.44s-.07,0-.1-.01c-51.35-10.75-69.8-34.58-69.98-34.82-9.21-8.86-7.54-16.88-4.5-22.04,2.86-4.86,7.86-8.41,13.7-9.73,25.66-5.81,67.26-.2,69.31,.09l65.94-10.42c.05,0,.11,0,.16,0l65.94,11.06c72.26-11.03,83.51,6.85,83.95,7.62,3.63,4.3,5.08,8.81,4.23,13.35-1.78,9.56-12.95,15.8-13.42,16.06-26.16,18.74-50.56,17.25-54.57,16.85v6.7c0,.27-.21,.49-.49,.5l-160.16,4.79h-.01Zm-31.54-68.22c-10.11,0-20.52,.65-29.12,2.6-5.58,1.26-10.34,4.64-13.06,9.27-4.15,7.05-2.68,14.07,4.38,20.87,.23,.3,18.48,23.82,69.38,34.49l159.62-4.78v-6.77c0-.15,.06-.28,.17-.38,.11-.09,.26-.13,.4-.12,.26,.04,26.27,3.55,54.46-16.64,.16-.09,11.28-6.3,12.97-15.4,.79-4.23-.58-8.47-4.06-12.59-.16-.25-11.62-18.12-83.07-7.19-.05,0-.11,0-.16,0l-65.93-11.06-65.93,10.42s-.1,0-.15,0c-.29-.04-19.46-2.71-39.9-2.71Z" fill="#263238"></path>
    </g>
    <g>
      <path d="M458.55,304.57l-16.61,29.88,18.02,58.25,29,83.69s74.64,12.9,74.64-24.69l-21.52-57.64-27.31-47.73-56.22-41.76Z" fill="#263238"></path>
      <path d="M516.07,479.08c-14.18,0-26.21-2.02-27.19-2.19l-.29-.05-.1-.28-29-83.69-18.09-58.47,.1-.19,16.89-30.37,56.81,42.26,27.31,47.73,21.59,57.79v.09c0,7.1-2.64,12.92-7.85,17.31-9.53,8.02-25.93,10.07-40.18,10.07Zm-26.73-3.13c4.02,.65,48.38,7.36,66.26-7.7,4.95-4.17,7.47-9.71,7.5-16.46l-21.49-57.55-27.22-47.57-55.68-41.36-16.23,29.19,17.96,58.05,28.9,83.39Z" fill="#263238"></path>
    </g>
    <path d="M568.33,548.92c-.06,0-.12-.01-.18-.04-.26-.1-.38-.39-.28-.65,.85-2.15,8.44-21.01,12.88-21.92,.6-.13,1.16,.05,1.61,.5,.19,.2,.19,.51,0,.71-.2,.2-.51,.19-.71,0-.21-.21-.43-.27-.69-.22-2.96,.61-8.89,13.07-12.16,21.31-.08,.2-.27,.32-.46,.32Z" fill="#044a95"></path>
    <g>
      <path d="M606.37,528.6l-2.23-10c-2.04-7.24-4.43-6.39-4.43-6.39-5.79-4.78-13.97,6.39-13.97,6.39-1.7,3.32-5.11,5.54-5.11,5.54-4.77,1.7-11.59,6.06-11.59,6.06-7.84,6.06-11.24-1.63-11.24-1.63-7.16-14.65-17.97-18.73-17.97-18.73l-23.6-100.53c-2.39-28.62-17.97-32.37-17.97-32.37l-29.76-10.37c-3.43,4.28,0,7.99,0,7.99l5.47,22.49,.68,28.62,21.8,37.45,8.53,37.17c5.11,27.26,18,44.76,18,44.76,28.58-2.69,45.34,3.38,45.34,3.38,6.93,1.75,20.57-.48,25.3-1.34,1.21-.22,2.32-.83,3.14-1.76,2.69-3.05,6.82-9.33,8.87-12.53,.8-1.25,1.06-2.75,.74-4.2Zm-12.11,10.99v-20.99l3.67-1.96,2.12,13.53s0,.03,0,.05l-5.65,9.4c-.04,.06-.13,.03-.13-.04Z" fill="#fff"></path>
      <path d="M575.09,549.58c-2.58,0-4.97-.19-6.88-.67-.21-.07-17.05-6.01-45.17-3.37l-.28,.03-.17-.23c-.13-.18-13.02-17.91-18.09-44.96l-8.51-37.08-21.82-37.5-.68-28.7-5.43-22.32c-.55-.67-3.26-4.38,.07-8.53l.22-.28,.33,.12,29.76,10.37c.6,.14,15.92,4.15,18.3,32.8l23.53,100.21c1.71,.72,11.35,5.27,18,18.88,.02,.04,1.31,2.86,3.99,3.53,1.91,.48,4.1-.22,6.5-2.08,.32-.2,6.9-4.4,11.66-6.12,.41-.28,3.38-2.37,4.89-5.32,.25-.36,5.29-7.16,10.42-7.8,1.53-.2,2.92,.18,4.13,1.11,.25-.01,.62,.02,1.07,.25,1.44,.74,2.69,2.94,3.7,6.53l2.23,10.03c.35,1.58,.07,3.21-.81,4.58-2.18,3.4-6.23,9.55-8.91,12.59-.88,.99-2.09,1.67-3.42,1.92-3.88,.71-11.88,2.01-18.63,2.01Zm-37.86-5.72c19.71,0,31.14,4.04,31.27,4.09,6.87,1.73,20.9-.61,25.04-1.37,1.11-.2,2.12-.77,2.85-1.6,2.64-2.99,6.66-9.09,8.82-12.47,.73-1.14,.97-2.5,.67-3.82h0s-2.23-10-2.23-10c-1.51-5.34-3.26-6.17-3.79-6.02l-.25,.06-.22-.15c-1.05-.86-2.21-1.2-3.55-1.03-4.71,.59-9.65,7.27-9.7,7.33-1.7,3.33-5.1,5.57-5.24,5.66l-.11,.05c-4.66,1.67-11.42,5.97-11.48,6.01-2.62,2.03-5.1,2.79-7.33,2.23-3.16-.8-4.58-3.95-4.64-4.08-6.97-14.27-17.59-18.42-17.69-18.46l-.25-.09-.06-.26-23.6-100.53c-2.34-27.95-17.45-31.96-17.6-32l-29.46-10.27c-2.76,3.76,.07,6.92,.19,7.06l.09,.09,.03,.13,5.49,22.6,.68,28.49,21.79,37.48,8.53,37.17c4.72,25.19,16.25,42.2,17.76,44.35,5.03-.46,9.71-.66,13.99-.66Zm57.4-3.66l-.44-.07c-.25-.07-.42-.29-.42-.55v-21.29l4.56-2.43,2.25,14.4-.1,.2-5.85,9.74Zm.14-21.31v19.13l4.77-7.93-1.99-12.68-2.79,1.48Z" fill="#263238"></path>
    </g>
    <path d="M597.93,517.14c-.24,0-.45-.18-.49-.42-.64-4.11,2.1-4.98,2.13-4.99,.27-.08,.54,.07,.62,.33s-.07,.54-.33,.62c-.09,.03-1.94,.68-1.44,3.88,.04,.27-.14,.53-.42,.57-.03,0-.05,0-.08,0Z" fill="#044a95"></path>
    <path d="M586.08,542.3s-.06,0-.08,0c-.27-.05-.46-.3-.41-.58l3.41-20.42c0-.05,.84-3.99,5.35-3.2,.27,.05,.45,.31,.41,.58-.05,.27-.32,.46-.58,.41-3.54-.61-4.17,2.27-4.19,2.39l-3.4,20.4c-.04,.25-.25,.42-.49,.42Z" fill="#263238"></path>
    <path d="M577.57,542.3s-.07,0-.11-.01c-.27-.06-.44-.33-.38-.6,.2-.88,4.98-21.53,12.46-20.81,.28,.03,.48,.27,.45,.55-.03,.28-.27,.46-.55,.45-5.54-.58-10.09,14.27-11.39,20.03-.05,.23-.26,.39-.49,.39Z" fill="#263238"></path>
    <path d="M550.99,545.55c-.22,0-.42-.14-.48-.36-1.08-3.86,2.69-7.76,2.85-7.93,.19-.2,.51-.2,.71,0,.2,.19,.2,.51,0,.71-.04,.04-3.53,3.66-2.6,6.96,.07,.27-.08,.54-.35,.62-.05,.01-.09,.02-.14,.02Z" fill="#263238"></path>
    <path d="M570.75,538.11c-.23,0-.44-.16-.49-.39-.73-3.29-2.34-5.83-2.36-5.85-.15-.23-.08-.54,.15-.69,.23-.15,.54-.08,.69,.15,.07,.11,1.72,2.7,2.49,6.17,.06,.27-.11,.54-.38,.6-.04,0-.07,.01-.11,.01Z" fill="#263238"></path>
    <g>
      <path d="M356.28,412.02l-16.87-5.62,5.29,27.08s-10.91,53.42-19.35,78.73c0,0-14.7,11.28-20.5,18.33-.15,.18-.39,.26-.62,.2l-15.79-4.12s-19.33-23.51-21.09-12.11c3.33,1.99,4.28,4.55,4.28,4.55l.87,20.77-6.12-9c1.87-6.84,.97-16.32,.97-16.32,0,0-3.16-5.08-4.22,0l-3.87,16.32,11.6,15.12,20.89,2.47s10.02-5.54,47.65-3.3c0,0,10.91-6.2,17.94-33.62l14.76-50.27,4.37-42.35-20.19-6.86Z" fill="#fff"></path>
      <path d="M291.85,548.94l-.16-.02-21.1-2.5-11.87-15.47,3.92-16.56c.33-1.6,.92-2.46,1.79-2.62,1.02-.18,2.03,.76,2.68,1.55,.4-1.26,1.12-2.04,2.14-2.32,5.44-1.48,17.64,12.95,19.48,15.17l15.64,4.08s.08,0,.11-.03c5.49-6.68,19.03-17.21,20.46-18.32,8.15-24.54,18.74-75.84,19.27-78.42l-5.44-27.83,17.69,5.9,20.57,6.99-4.41,42.75-14.78,50.36c-7,27.29-17.72,33.65-18.17,33.91l-.13,.07h-.15c-37.05-2.22-47.28,3.18-47.38,3.23l-.14,.08Zm-20.72-3.46l20.53,2.43c1.41-.69,12.36-5.38,47.61-3.3,1.19-.78,11.1-7.92,17.58-33.23l14.77-50.29,4.31-41.87-19.81-6.73-16.06-5.35,5.15,26.34-.02,.1c-.11,.53-11.02,53.73-19.37,78.78l-.05,.15-.12,.09c-.15,.11-14.72,11.32-20.42,18.25-.27,.34-.71,.48-1.13,.37l-15.95-4.16-.1-.12c-3.74-4.55-14.39-16.11-18.54-14.97-.82,.23-1.35,.98-1.61,2.3,3.2,2.03,4.16,4.51,4.2,4.62l.03,.15,.95,22.53-7.24-10.64,.06-.22c1.66-6.06,1.1-14.36,.97-15.89l-.07-.04,.02-.14c-.58-.86-1.6-1.96-2.22-1.86-.4,.07-.76,.75-.99,1.85l-3.82,16.11,11.33,14.76Zm-4.21-14.74l5.01,7.36-.8-18.93c-.16-.36-1-2.11-3.21-3.68,.17,2.62,.46,9.69-1,15.26Z" fill="#263238"></path>
    </g>
    <path d="M325.34,512.71c-.15,0-.29-.06-.39-.19-.17-.22-.14-.53,.08-.7,5.92-4.73,14.66-5.69,15.03-5.73,.27-.03,.52,.17,.55,.44s-.17,.52-.44,.55c-.09,0-8.82,.97-14.5,5.52-.09,.07-.2,.11-.31,.11Z" fill="#263238"></path>
    <path d="M300.03,537.5c-.07,0-.15-.02-.22-.05-.25-.12-.35-.42-.23-.67,2.51-5.18,4.7-6.34,4.79-6.39,.25-.12,.55-.03,.67,.22,.12,.25,.03,.54-.21,.67-.04,.02-2.03,1.14-4.35,5.93-.09,.18-.26,.28-.45,.28Z" fill="#263238"></path>
    <path d="M280.59,542.3c-.18,0-.36-.1-.45-.28-2.27-4.53-3.58-13.35-4.04-16.93-.17-1.29-.49-2.47-.96-3.51-.85-1.87-1.63-2.38-2.14-2.47-.58-.11-1.01,.29-1.03,.3-.2,.19-.51,.19-.71,0-.19-.2-.19-.51,0-.7,.03-.03,.79-.79,1.9-.58,1.09,.2,2.06,1.22,2.89,3.05,.51,1.13,.86,2.41,1.04,3.79,.45,3.53,1.74,12.21,3.94,16.61,.12,.25,.02,.55-.22,.67-.07,.04-.15,.05-.22,.05Z" fill="#263238"></path>
    <path d="M288.46,542.3c-.22,0-.42-.14-.48-.37l-3.06-10.96c-2.9-8.72-9.08-9.08-9.34-9.09-.28-.01-.49-.24-.48-.52,.01-.27,.26-.49,.52-.48,.29,.01,7.12,.36,10.26,9.8l3.07,10.99c.07,.27-.08,.54-.35,.62-.04,.01-.09,.02-.13,.02Z" fill="#263238"></path>
    <path d="M297.02,547.26c-.19,0-.37-.11-.45-.29l-7.03-15.17c-.03-.08-2.06-5.07-4.97-4.15-.26,.08-.54-.06-.63-.33-.08-.26,.06-.54,.33-.63,3.79-1.2,6.09,4.47,6.19,4.71l7.02,15.14c.12,.25,0,.55-.24,.66-.07,.03-.14,.05-.21,.05Z" fill="#263238"></path>
    <path d="M309.46,545.55c-.19,0-.37-.11-.46-.29-.11-.25,0-.55,.25-.66,4.12-1.88,5.18-4.88,5.19-4.92,.09-.26,.37-.4,.63-.31,.26,.09,.4,.37,.32,.63-.05,.14-1.19,3.44-5.72,5.51-.07,.03-.14,.04-.21,.04Z" fill="#263238"></path>
    <g>
      <path d="M496.46,548.08c-51.4,20.24-100.87,7.38-100.87,7.38l-31.16-8.03c13.81-11.57,20.88-30.09,20.88-30.09,0,0,43.43-5.35,74.66-1.33,0,0,12.03,.44,20.51,5.8,3.61,3.94,7.32,11.81,7.32,11.81l8.67,14.46Z" fill="#fff"></path>
      <path d="M433.75,559.93c-22.49,0-38.01-3.91-38.29-3.98l-32.1-8.27,.75-.62c13.54-11.35,20.66-29.7,20.73-29.88l.11-.28,.3-.04c.44-.05,43.85-5.31,74.78-1.33,.45,.01,12.22,.51,20.71,5.88l.1,.08c3.62,3.95,7.25,11.61,7.4,11.93l8.95,14.92-.55,.22c-22.6,8.9-44.97,11.39-62.89,11.39Zm-68.26-12.74l30.23,7.79c.49,.13,49.56,12.49,100.01-7.15l-8.37-13.95c-.06-.12-3.71-7.83-7.21-11.68-8.26-5.19-20.08-5.68-20.2-5.69-29.52-3.8-70.41,.84-74.29,1.29-.95,2.34-7.82,18.63-20.17,29.38Z" fill="#263238"></path>
    </g>
    <path d="M493.42,468.68l-12.95,53.14c-8.48-5.36-20.51-5.8-20.51-5.8-31.23-4.02-74.66,1.33-74.66,1.33-.89-17.15-12.6-46.84-14.07-50.52-.1-.24-.16-.37-.16-.37-9.82-29.02,14.23-63.9,14.23-63.9,0,0,11,13.72,25.65,23.44,13.03,8.64,29.7,9.11,43.2,1.24,8.49-4.94,16.63-12.23,16.93-22.1,0,0-3.85-32.44-7.39-40.15l4.82,1.6c3.86,27.63,22.24,59.7,22.24,59.7,15.18,28.57,2.68,42.41,2.68,42.41Z" fill="#b212ce" data-primary="true"></path>
    <g opacity=".2">
      <path d="M493.42,468.68l-12.95,53.14c-8.48-5.36-20.51-5.8-20.51-5.8-31.23-4.02-74.66,1.33-74.66,1.33-.89-17.15-12.6-46.84-14.07-50.52,1.48,3.38,11.3,26.13,59.21,15.01,0,0,42.48,11.46,62.98-13.16Z"></path>
    </g>
    <path d="M480.47,522.31c-.09,0-.19-.03-.27-.08-8.26-5.22-20.14-5.72-20.26-5.72-30.85-3.97-74.14,1.28-74.58,1.33-.14,.02-.28-.02-.38-.11-.11-.09-.17-.22-.18-.36-.87-16.63-11.84-44.87-14.04-50.36-.1-.24-.16-.38-.16-.38-9.79-28.95,14.04-64.01,14.28-64.37,.09-.13,.24-.21,.39-.22,.16,0,.31,.06,.41,.19,.11,.14,11.12,13.78,25.54,23.33,12.92,8.57,29.27,9.03,42.67,1.22,10.82-6.29,16.43-13.59,16.68-21.69-.04-.25-3.88-32.38-7.34-39.93-.08-.18-.05-.39,.08-.54,.13-.15,.34-.2,.53-.14l4.82,1.6c.18,.06,.31,.22,.34,.41,3.8,27.21,22,59.2,22.18,59.52,14.5,27.29,3.8,41.55,2.7,42.89l-12.92,53.02c-.04,.16-.15,.29-.3,.35-.06,.02-.12,.04-.19,.04Zm-47.55-8.29c9.21,0,18.63,.4,27.11,1.49,.44,.01,11.68,.48,20.12,5.51l12.79-52.47c.02-.08,.06-.16,.11-.22,.12-.14,12.07-13.95-2.75-41.84-.18-.31-18.33-32.21-22.25-59.55l-3.49-1.16c3.4,9.11,6.86,38,7.01,39.28-.25,8.54-6.03,16.12-17.17,22.6-13.73,8-30.49,7.52-43.72-1.25-12.93-8.57-23.14-20.4-25.33-23.02-2.98,4.58-22.75,36.43-13.8,62.9h0s.05,.12,.14,.33c2.19,5.48,13.01,33.32,14.08,50.17,3.59-.42,24.76-2.76,47.15-2.76Z" fill="#263238"></path>
    <g>
      <rect x="391.95" y="311.74" width="34.69" height="55.9" fill="#263238"></rect>
      <path d="M427.14,368.14h-35.69v-56.9h35.69v56.9Zm-34.69-1h33.69v-54.9h-33.69v54.9Z" fill="#263238"></path>
    </g>
    <g>
      <path d="M471.08,405.12c-.31,10.07-8.77,17.46-17.44,22.41-13.22,7.54-29.61,7.04-42.33-1.31-14.83-9.73-26-23.67-26-23.67l11.57-35.33c28.91-14.77,25.7-38.55,25.7-38.55l23.77-7.39,1.6,23.13c2.89,18.31,15.74,20.56,15.74,20.56,3.54,7.71,7.39,40.15,7.39,40.15Z" fill="#fff"></path>
      <path d="M433.52,433.39c-7.83,0-15.65-2.26-22.5-6.75-14.73-9.66-26-23.64-26.11-23.78l-.17-.21,11.71-35.79,.18-.09c28.24-14.43,25.47-37.8,25.44-38.04l-.06-.42,24.78-7.7,1.65,23.76c2.79,17.67,15.2,20.08,15.33,20.1l.26,.05,.11,.24c3.53,7.7,7.28,38.98,7.43,40.3v.04s0,.04,0,.04c-.27,8.6-6.22,16.28-17.69,22.83-6.35,3.62-13.37,5.43-20.36,5.43Zm-47.66-30.95c1.46,1.77,12.1,14.43,25.71,23.36,12.65,8.3,28.67,8.79,41.81,1.29,11.14-6.35,16.92-13.74,17.19-21.96-.15-1.26-3.86-31.92-7.25-39.74-1.89-.46-13.2-3.94-15.88-20.92l-1.57-22.54-22.78,7.08c.25,3.29,.76,24.86-25.83,38.54l-11.42,34.88Z" fill="#263238"></path>
    </g>
    <g>
      <rect x="408.19" y="250.28" width="48.47" height="86.74" rx="24.24" ry="24.24" fill="#fff"></rect>
      <path d="M432.42,337.51c-13.64,0-24.74-11.1-24.74-24.74v-38.26c0-13.64,11.1-24.74,24.74-24.74s24.74,11.1,24.74,24.74v38.26c0,13.64-11.1,24.74-24.74,24.74Zm0-86.74c-13.09,0-23.74,10.65-23.74,23.74v38.26c0,13.09,10.65,23.74,23.74,23.74s23.74-10.65,23.74-23.74v-38.26c0-13.09-10.65-23.74-23.74-23.74Z" fill="#263238"></path>
    </g>
    <g>
      <path d="M447.12,256.36s-26.16-3.2-29.37,18.97c0,0-.28,16.27-8.46,21.2l-7.44,4.82-1.69-41.32,33.34-20.89,13.63,17.22Z" fill="#263238"></path>
      <path d="M401.39,302.25l-1.74-42.49,33.96-21.28,14.66,18.53-1.21-.15c-1.05-.13-25.71-2.88-28.81,18.55,0,.61-.38,16.54-8.7,21.56l-8.17,5.29Zm-.72-41.95l1.65,40.16,6.71-4.34c7.86-4.74,8.23-20.63,8.23-20.79,2.86-19.73,23.59-19.84,28.77-19.55l-12.64-15.98-32.71,20.5Z" fill="#263238"></path>
    </g>
    <g>
      <path d="M433.52,251.75c-8.37,0-18.39,5.58-21.23,30.65,0,0,.53,31.97-10.29,48.12-4.23,6.3-6.15,13.88-4.98,21.38,.57,3.63,1.61,7.91,3.35,12.87,1.28,3.65,2.09,7.45,2.29,11.31,.71,13.5-.51,43.03-22.9,55.44-9.92,5.5-22.45,2.25-27.96-7.67-1-1.79-1.86-3.87-2.54-6.26-.05-.18-.3-.17-.33,.01-.18,1.14-.75,3.03-2.48,3.9,0,0-.32,16.7-3.21,10.92,0,0-14.78-26.34-1.61-61.36,0,0,7.67-19.18,20.75-21.91,1.75-.36,3.45-.91,5.01-1.78,4.87-2.73,13.29-9.46,11.49-22.82-.23-1.7-.67-3.35-1.23-4.97-3-8.76-15.32-49.31,6.39-69.3,0,0,24.48-27.09,55.62-11.14,5.22,2.67,9.86,6.35,13.86,10.65,6.41,6.91,21.59,22.09,40.39,32.93l19.27,8.99s26.66,8.99,32.12,37.26l1.65,6.23c2.44,9.2,8.31,17.13,16.4,22.16l1.64,1.02c9.28,5.77,15.98,15.04,18.07,25.77,1.31,6.7,1.11,14.3-2.86,21.46-2.79,5.04-7.31,8.84-12.5,11.32-3.79,1.81-8.87,6.11-6.34,15.81,0,0,2.25,7.39,2.25,18.95,0,0-23.77,1.28-28.59-39.19,0,0-2.89-25.06-12.53-32.12,0,0-8.35-6.42-22.49-9.32,0,0-15.74-1.93-25.38-25.06,0,0-1.61-8.67-12.53-19.27,0,0-12.49-10.92-9.64-28.27,0,0,3-18.21-.46-31.8-2.18-8.56-9.63-14.9-18.46-14.91Z" fill="#fff"></path>
      <path d="M563.45,452.2c-2.22,0-24.34-1-28.94-39.63-.03-.25-2.98-24.92-12.33-31.78-.09-.07-8.45-6.4-22.29-9.23-.12-.01-16.1-2.22-25.74-25.35l-.03-.1c-.02-.09-1.73-8.66-12.39-19.01-.11-.09-12.65-11.29-9.78-28.71,.03-.18,2.94-18.26-.46-31.6-2.18-8.55-9.57-14.53-17.98-14.54h-.02c-11.31,0-18.47,10.44-20.71,30.21,0,.26,.41,32.25-10.37,48.34-4.28,6.39-6.02,13.85-4.91,21.02,.61,3.95,1.73,8.25,3.33,12.78,1.34,3.82,2.12,7.67,2.32,11.45,.66,12.58-.28,43.22-23.16,55.91-10.23,5.67-23.08,2.15-28.64-7.87-.88-1.59-1.63-3.33-2.23-5.21-.34,1.02-.98,2.2-2.19,2.91-.08,3.79-.49,11.89-2.38,12.32-.83,.19-1.41-.75-1.77-1.47-.14-.24-14.73-26.93-1.63-61.76,.32-.8,7.93-19.47,21.12-22.22,1.91-.4,3.5-.96,4.87-1.73,4.95-2.77,12.98-9.35,11.24-22.32-.2-1.51-.6-3.11-1.21-4.88-2.78-8.1-15.51-49.54,6.52-69.83,.21-.24,25.06-27.16,56.19-11.22,5.07,2.59,9.78,6.21,14,10.76,5.77,6.22,21.24,21.86,40.27,32.84l19.24,8.97c.22,.07,26.95,9.39,32.4,37.62l1.65,6.2c2.42,9.12,8.17,16.88,16.18,21.86l1.64,1.02c9.55,5.94,16.22,15.45,18.29,26.1,1.58,8.12,.6,15.45-2.91,21.79-2.69,4.85-7.08,8.83-12.72,11.53-4.08,1.95-8.44,6.17-6.07,15.23,.02,.05,2.27,7.57,2.27,19.08v.47l-.47,.03s-.07,0-.18,0Zm-88.35-106.34c9.4,22.52,24.8,24.69,24.96,24.71,14.12,2.89,22.65,9.35,22.73,9.42,9.69,7.11,12.6,31.43,12.72,32.46,4.33,36.39,24.25,38.63,27.59,38.75-.06-11.06-2.2-18.23-2.23-18.31-2.67-10.26,2.99-14.68,6.6-16.41,5.45-2.6,9.69-6.45,12.28-11.11,3.4-6.13,4.34-13.24,2.8-21.12-2.02-10.38-8.53-19.65-17.84-25.44l-1.64-1.02c-8.23-5.11-14.13-13.09-16.62-22.45l-1.65-6.23c-5.35-27.68-31.54-36.83-31.8-36.92l-19.33-9.02c-19.18-11.07-34.74-26.8-40.54-33.05-4.14-4.46-8.75-8.01-13.72-10.55-30.43-15.58-54.78,10.76-55.02,11.03-21.61,19.9-9.03,60.81-6.29,68.81,.63,1.83,1.04,3.49,1.25,5.07,1.83,13.56-6.57,20.43-11.74,23.33-1.46,.82-3.14,1.42-5.15,1.83-12.67,2.64-20.31,21.41-20.39,21.6-12.93,34.37,1.43,60.67,1.58,60.93,.45,.89,.69,.96,.69,.96,.73-.33,1.47-5.67,1.58-11.65v-.3s.28-.13,.28-.13c1.55-.78,2.05-2.55,2.21-3.53,.05-.31,.3-.54,.62-.56,.34,0,.6,.19,.69,.5,.63,2.24,1.47,4.31,2.5,6.15,5.29,9.53,17.53,12.88,27.28,7.47,22.39-12.41,23.3-42.58,22.65-54.98-.19-3.68-.96-7.44-2.26-11.17-1.61-4.59-2.75-8.96-3.37-12.96-1.16-7.42,.64-15.14,5.06-21.73,10.61-15.83,10.21-47.51,10.21-47.83,2.92-25.76,13.41-31.16,21.71-31.16h.02c8.86,0,16.65,6.3,18.94,15.29,3.45,13.54,.5,31.82,.47,32.01-2.77,16.86,9.35,27.71,9.47,27.81,10.6,10.29,12.51,18.68,12.68,19.51Zm-126.33,71.86s0,0,0,0c0,0,0,0,0,0Z" fill="#263238"></path>
    </g>
    <g>
      <path d="M406.05,584.67l29.38-7.57s40.36-15.7,67.43-21.66c0,0,12.66,15.96,13.29,47.56,0,0-46.17,6.17-82.67,11.81" fill="#fff"></path>
      <path d="M433.57,615.29l-.15-.99c34.19-5.28,77.4-11.1,82.24-11.75-.68-28.67-11.44-44.43-12.99-46.56-26.72,5.94-66.64,21.41-67.04,21.57l-29.44,7.59-.25-.97,29.38-7.57c.35-.14,40.65-15.76,67.45-21.67l.3-.07,.19,.25c.13,.16,12.77,16.46,13.4,47.86v.45s-.43,.06-.43,.06c-.46,.06-46.59,6.24-82.66,11.81Z" fill="#263238"></path>
    </g>
    <path d="M298.44,626.34c-.33,0-.67-.02-1.01-.06-2.6-.31-4.82-1.81-6.6-4.48-.15-.23-.09-.54,.14-.69,.23-.15,.54-.09,.69,.14,1.6,2.41,3.58,3.77,5.88,4.04,4.8,.57,9.49-3.73,9.54-3.77,.2-.19,.52-.18,.71,.03,.19,.2,.18,.52-.03,.71-.19,.18-4.47,4.09-9.32,4.09Z" fill="#263238"></path>
    <path d="M293.74,636c-2.68,0-5.67-.89-8.63-3.55-.21-.18-.22-.5-.04-.71,.18-.21,.5-.22,.71-.04,8.17,7.34,16.4,.3,16.74,0,.21-.18,.52-.16,.71,.05,.18,.21,.16,.52-.05,.71-.06,.05-4.12,3.54-9.44,3.54Z" fill="#263238"></path>
    <path d="M285.39,644.59c-.33,0-.64-.02-.96-.06-.27-.04-.46-.29-.43-.56,.04-.27,.28-.47,.56-.43,4.93,.66,12.27-5.12,12.34-5.17,.21-.17,.53-.14,.7,.08,.17,.22,.14,.53-.08,.7-.29,.24-6.9,5.44-12.14,5.44Z" fill="#263238"></path>
    <path d="M288.12,648.86c-1.12,0-2.25-.14-3.36-.48-.26-.08-.41-.36-.33-.63,.08-.26,.36-.41,.63-.33,5.34,1.67,11.84-2.03,11.9-2.06,.24-.14,.54-.06,.68,.18,.14,.24,.06,.54-.18,.68-.23,.13-4.62,2.64-9.35,2.64Z" fill="#263238"></path>
    <path d="M400.24,484.99c-1.2,0-20.88-.3-29.61-18.33-.12-.25-.02-.55,.23-.67,.25-.12,.55-.02,.67,.23,8.69,17.94,28.56,17.76,28.75,17.76h0c.27,0,.5,.22,.5,.49,0,.28-.21,.5-.49,.51h-.06Z" fill="#263238"></path>
    <path d="M461.59,484.58c-1.05,0-1.65-.06-1.68-.06-.27-.03-.47-.28-.44-.55s.27-.48,.55-.44c.18,.02,18.02,1.76,33.03-15.18,.18-.21,.5-.23,.71-.04,.21,.18,.23,.5,.04,.71-12.65,14.28-27.32,15.57-32.21,15.57Z" fill="#263238"></path>
    <path d="M419.15,377.78s-.06,0-.1,0c-11.72-2.3-16.31-1.69-16.35-1.68-.27,.03-.53-.15-.57-.42-.04-.27,.15-.53,.42-.57,.19-.03,4.75-.65,16.69,1.69,.27,.05,.45,.32,.39,.59-.05,.24-.26,.4-.49,.4Z" fill="#263238"></path>
    <path d="M435.89,380.88c-.18,0-.36-.01-.54-.03-2.26-.27-3.52-2.19-3.57-2.27-.15-.23-.08-.54,.15-.69,.23-.15,.54-.08,.69,.15,.01,.02,1.07,1.61,2.86,1.82,1.35,.16,2.79-.48,4.3-1.92,.2-.19,.52-.18,.71,.02,.19,.2,.18,.52-.02,.71-1.55,1.47-3.09,2.21-4.58,2.21Z" fill="#263238"></path>
    <path d="M454.27,377.78c-.22,0-.43-.15-.48-.38-.07-.27,.09-.54,.36-.61,.32-.08,7.96-2.01,12.42-1.79,.28,.01,.49,.25,.47,.52-.01,.27-.23,.48-.5,.48,0,0-.02,0-.02,0-4.3-.19-12.05,1.74-12.13,1.76-.04,.01-.08,.02-.12,.02Z" fill="#263238"></path>
    <path d="M560.49,444.18c-2.55,0-4.8-.82-6.72-2.46-8.71-7.42-7.74-28.95-7.7-29.86,2.82-37.9-24.42-41.46-25.58-41.59-16.49-1.62-20.93-12.73-20.97-12.85-4.99-8.09-17.37-17.25-17.5-17.34-22.1-11.1-24.22-56.39-24.3-58.31-.31-22.09-10.62-24.9-10.73-24.93-.08-.02-.16-.06-.22-.12-.1-.1-10.6-9.56-21.5-8.44-5.26,.54-9.82,3.45-13.56,8.64-2.65,3.69-4.5,8.17-5.34,12.96-.72,4.14-1.68,10.37-2.12,16.52-.43,5.99-1.52,11.7-3.22,16.97-1.13,3.48-2.15,6-3.06,7.48-.33,1.17-4.84,17.83-3.82,36.82,.25,1.25,6.09,32.36-5.07,44.76-.83,.93-20.44,22.76-32.08,19.63-3.69-.99-6.15-4.38-7.32-10.08-.05-.27,.12-.54,.39-.59,.27-.06,.54,.12,.59,.39,1.08,5.29,3.3,8.43,6.6,9.31,11.04,2.98,30.87-19.11,31.07-19.33,10.83-12.03,4.88-43.65,4.82-43.97-1.07-19.84,3.82-37.11,3.87-37.28,.01-.04,.03-.09,.06-.12,.87-1.41,1.88-3.87,2.99-7.33,1.68-5.19,2.75-10.82,3.17-16.74,.45-6.19,1.41-12.46,2.14-16.62,.87-4.94,2.77-9.57,5.51-13.38,3.91-5.43,8.71-8.48,14.27-9.05,10.95-1.13,21.05,7.6,22.19,8.61,1.31,.38,11.05,3.98,11.36,25.84,.02,.45,2.17,46.62,23.82,57.49,.59,.42,12.74,9.41,17.87,17.75,.08,.19,4.33,10.74,20.18,12.29,.3,.03,29.36,3.77,26.47,42.65-.01,.21-.99,21.94,7.35,29.04,2.35,2,5.27,2.65,8.68,1.93,.27-.05,.54,.11,.59,.39,.06,.27-.12,.54-.39,.59-.97,.21-1.91,.31-2.82,.31Z" fill="#263238"></path>
    <path d="M346.44,422c-.19,0-.38-.11-.46-.3-12.83-29.84,10.46-54.17,10.7-54.41l16.41-19.03c10.91-12.66,13.25-30.45,5.96-45.31-.71-1.45-1.22-2.28-1.23-2.29-9.69-24.2,1.56-35.84,1.68-35.95l14.13-14.77c13.46-14.42,29.09-16.17,29.24-16.19,.28-.02,.52,.17,.55,.45,.03,.27-.17,.52-.45,.55-.15,.02-15.42,1.74-28.62,15.88l-14.14,14.78c-.12,.12-10.89,11.34-1.5,34.81h0s.52,.83,1.24,2.3c7.47,15.23,5.08,33.44-6.1,46.41l-16.43,19.05c-.25,.26-23.08,24.12-10.52,53.34,.11,.25,0,.55-.26,.66-.06,.03-.13,.04-.2,.04Zm32.27-121.79h0Z" fill="#263238"></path>
    <path d="M349.25,418.09c-.25,0-.46-.18-.49-.43-.04-.28-3.52-27.87,19.62-50.38l8.35-8.09c4.91-4.76,8.19-10.75,9.5-17.34,2.4-12.09,1.08-23.15-3.92-32.87-1.27-2.47-2.14-5.57-2.6-9.21-1.27-10.11,1.09-20.66,6.65-29.7l7.2-11.7c12.21-21.85,45.79-19.76,46.13-19.73,.28,.02,.48,.26,.46,.53-.02,.27-.26,.49-.53,.46-.33-.02-33.28-2.07-45.19,19.24l-7.21,11.72c-5.44,8.84-7.75,19.16-6.51,29.05,.44,3.52,1.28,6.51,2.5,8.87,5.1,9.93,6.45,21.21,4.01,33.53-1.35,6.79-4.73,12.96-9.79,17.86l-8.35,8.09c-22.78,22.16-19.36,49.25-19.32,49.53,.04,.27-.15,.53-.43,.56-.02,0-.05,0-.07,0Z" fill="#263238"></path>
    <path d="M367.06,386.73c-.08,0-.15,0-.23,0-3.13-.11-5.88-2.52-8.16-7.17-.12-.25-.02-.55,.23-.67,.25-.12,.55-.02,.67,.23,2.11,4.29,4.57,6.51,7.3,6.61,.06,0,.13,0,.19,0,5.59,0,10.7-8.62,10.75-8.71,4.94-6.79,8.61-15.13,10.95-24.85,2.79-11.62,2.92-23.94,.38-36.62-2.11-10.57-2.4-24.01-2.4-24.14,2.92-28.27,25.37-43.96,25.6-44.12,22.07-11.37,32.59,6.62,32.69,6.8,.14,.24,.05,.54-.19,.68-.24,.14-.55,.05-.68-.19-.4-.71-10.16-17.33-31.31-6.44-.17,.12-22.24,15.56-25.11,43.3,0,.07,.29,13.43,2.38,23.9,2.57,12.82,2.44,25.29-.39,37.05-2.36,9.85-6.09,18.31-11.08,25.17-.2,.34-5.43,9.16-11.59,9.16Z" fill="#263238"></path>
    <path d="M561.35,424.14s-.09,0-.13-.02c-11.18-3.08-9.44-35.02-9.37-36.38,3.16-24.41-14.33-30.1-15.08-30.33l-30.89-14.05c-35.85-9.16-37.54-53.43-37.56-53.88-4.69-30.93-17.34-30.36-17.47-30.36-.25,.02-.51-.19-.54-.46-.02-.28,.19-.51,.46-.53,.55-.04,13.71-.61,18.54,31.27,.02,.5,1.7,44.02,36.89,53.03l30.91,14.05c.13,.04,18.99,6.12,15.72,31.36-.02,.29-1.77,32.46,8.64,35.32,.27,.07,.42,.35,.35,.62-.06,.22-.26,.37-.48,.37Z" fill="#263238"></path>
    <path d="M575.2,412.39c-9,0-12.4-13.76-13.67-25.31-1.93-17.6-10.24-33.33-23.41-44.31-1.1-.91-2.24-1.82-3.39-2.68-5.22-3.93-11.36-7.05-18.25-9.27-27.88-8.99-38.07-36.72-38.17-37-6.62-24.26-23.09-33.25-23.25-33.34-.24-.13-.34-.43-.21-.68,.13-.24,.43-.34,.68-.21,.17,.09,17.01,9.26,23.74,33.92,.09,.24,10.12,27.51,37.52,36.34,7,2.26,13.23,5.43,18.54,9.42,1.16,.88,2.32,1.79,3.43,2.72,13.36,11.15,21.8,27.12,23.76,44.97,1,9.12,3.98,24.42,12.68,24.42h.01c.28,0,.5,.22,.5,.5,0,.28-.24,.51-.52,.5Z" fill="#263238"></path>
    <path d="M557.83,353.69s-.06,0-.09,0c-15.89-2.9-24.46-29.52-24.81-30.65-7.46-16.77-20.88-16.05-21.01-16.04-.04,0-.08,0-.12,0-11.69-1.95-17.02-13.02-17.08-13.13-8.82-14.48-23.81-26.84-23.96-26.96-.21-.17-.25-.49-.07-.7,.17-.21,.49-.25,.7-.07,.15,.12,15.27,12.58,24.2,27.26,.08,.15,5.18,10.72,16.31,12.61,1.03-.04,14.46-.17,21.95,16.68,.11,.32,8.77,27.22,24.06,30.02,.27,.05,.45,.31,.4,.58-.04,.24-.25,.41-.49,.41Z" fill="#263238"></path>
    <path d="M432.39,315.88c-5.74,0-9.67-2.18-9.73-2.21-.24-.14-.32-.44-.19-.68,.13-.24,.44-.33,.68-.19,.08,.05,8.47,4.67,18.57-.02,.25-.12,.55,0,.66,.24,.12,.25,0,.55-.24,.66-3.54,1.64-6.88,2.19-9.76,2.19Z" fill="#263238"></path>
    <path d="M431.75,306.5c-3.02,0-5.39-2.77-5.49-2.89-.18-.21-.15-.53,.06-.7,.21-.18,.53-.15,.7,.06,.02,.03,2.27,2.65,4.88,2.53,1.41-.06,2.71-.9,3.86-2.5,.16-.23,.47-.27,.7-.11,.22,.16,.28,.47,.11,.7-1.34,1.87-2.91,2.85-4.64,2.92-.06,0-.12,0-.19,0Z" fill="#263238"></path>
    <path d="M447.04,293.56c-3.58,0-5.45-2.13-5.48-2.16-.18-.21-.15-.52,.05-.7s.53-.16,.7,.05c.15,.17,3.69,4.11,10.71-.1,.23-.14,.54-.07,.69,.17,.14,.24,.07,.54-.17,.69-2.57,1.54-4.74,2.05-6.51,2.05Z" fill="#263238"></path>
    <path d="M417.64,293.53c-1.33,0-2.8-.27-4.33-1-.25-.12-.35-.42-.23-.67,.12-.25,.42-.35,.67-.23,5.07,2.44,9.4-.81,9.58-.95,.22-.17,.53-.12,.7,.09,.17,.22,.13,.53-.09,.7-.15,.11-2.73,2.06-6.3,2.06Z" fill="#263238"></path>
    <path d="M453.29,284.83c-.24,0-.45-.17-.49-.42-.49-2.99-1.85-5.25-4.04-6.71-4.89-3.27-12.39-1.57-12.47-1.56-.27,.06-.54-.1-.6-.37-.06-.27,.1-.54,.37-.6,.32-.08,7.99-1.82,13.25,1.7,2.43,1.62,3.94,4.11,4.48,7.38,.04,.27-.14,.53-.41,.57-.03,0-.05,0-.08,0Z" fill="#263238"></path>
    <path d="M417.75,275.83c-.19,0-.37-.11-.46-.3-.11-.25,0-.55,.25-.66,3.02-1.34,7.52-.23,7.71-.18,.27,.07,.43,.34,.36,.61s-.34,.43-.61,.36c-.04,0-4.37-1.07-7.06,.13-.07,.03-.13,.04-.2,.04Z" fill="#263238"></path>
    <path d="M539.4,509.89s-.09,0-.14-.02c-.11-.03-10.67-3.12-15.96-.05-.24,.14-.54,.06-.68-.18-.14-.24-.06-.54,.18-.68,5.66-3.29,16.3-.18,16.75-.05,.26,.08,.42,.36,.34,.62-.06,.22-.26,.36-.48,.36Z" fill="#263238"></path>
    <path d="M490.75,426.76s-.04,0-.06,0c-.27-.03-.47-.28-.43-.56,1.77-14.36,5.64-19.87,5.8-20.1,.16-.22,.47-.28,.7-.11,.22,.16,.28,.47,.12,.7-.04,.05-3.89,5.58-5.62,19.64-.03,.25-.25,.44-.5,.44Z" fill="#263238"></path>
    <g>
      <path d="M366.19,555.43s45.67,9,82.7,28c1.69,.87,3.31,1.86,4.89,2.91,7.01,4.69,30.86,19.16,54.72,16.4,0,0,25.48-6.91,31.3-3.64l10.19,11.65s1.46,2.91,9.46,0c0,0,24.75-8.37,30.57,9.1,0,0,6.91,8.37,7.64,16.74,0,0,3.28,20.74-12.74,11.65l-14.72-7.53c-.58-.3-1.23-.44-1.88-.4-2.39,.14-8.87,.16-14.3-2.9-.54-.31-1.16-.44-1.79-.44-5.23,.08-29.12,.22-40.1-3.66,0,0-34.21-12.01-60.05-13.83,0,0-67.33,.73-96.08-6.55,0,0-9.1-35.3,10.19-57.5Z" fill="#fff"></path>
      <path d="M591.83,651.04c-1.98,0-4.38-.79-7.16-2.37l-14.7-7.52c-.51-.26-1.07-.37-1.63-.35-2.55,.14-9.07,.15-14.57-2.96-.45-.25-.97-.36-1.54-.37-4.78,.07-29.15,.24-40.27-3.69-.34-.12-34.44-12.01-59.92-13.8-.63,0-67.68,.65-96.17-6.57l-.29-.07-.07-.29c-.09-.36-8.94-35.81,10.3-57.96l.19-.22,.28,.06c.46,.09,46.16,9.23,82.83,28.04,1.56,.8,3.18,1.76,4.94,2.94,6.76,4.52,30.67,19.07,54.38,16.32,.98-.27,25.67-6.92,31.6-3.58l.13,.11,10.26,11.75s1.47,2.43,8.84-.25c.57-.2,13.85-4.59,23.33,.12,3.78,1.88,6.43,4.98,7.86,9.2,.73,.9,6.99,8.83,7.7,16.94,.06,.39,1.57,10.34-3.05,13.54-.92,.64-2.02,.96-3.28,.96Zm-23.3-11.24c.66,0,1.31,.16,1.91,.46l14.72,7.53c4.2,2.39,7.36,2.88,9.39,1.47,4.11-2.84,2.64-12.5,2.62-12.59-.71-8.15-7.47-16.42-7.53-16.5l-.09-.16c-1.33-4.01-3.82-6.93-7.38-8.71-9.11-4.53-22.42-.12-22.56-.08-7.73,2.81-9.73,.3-10.03-.18l-10.1-11.54c-5.72-3.04-30.6,3.66-30.85,3.72-2.07,.24-4.14,.35-6.19,.35-21.96,0-42.69-12.64-48.94-16.82-1.73-1.16-3.31-2.1-4.84-2.88-35.03-17.98-78.36-27.09-82.28-27.9-17.74,20.71-10.76,53.15-9.96,56.54,28.53,7.1,94.99,6.47,95.66,6.46,25.65,1.8,59.88,13.74,60.22,13.86,10.96,3.87,35.18,3.71,39.92,3.63,.73,0,1.44,.16,2.04,.5,5.28,2.97,11.57,2.97,14.03,2.83,.08,0,.16,0,.23,0Z" fill="#263238"></path>
    </g>
    <path d="M581.26,624.87c-.22,0-.44,0-.66-.02-5.32-.38-8.77-5.17-8.91-5.37-.16-.23-.11-.54,.12-.7,.22-.16,.54-.11,.7,.12,.03,.05,3.33,4.61,8.17,4.95,3.02,.2,6.04-1.25,8.98-4.34,.19-.2,.51-.21,.71-.02,.2,.19,.21,.51,.02,.71-2.94,3.11-6.01,4.68-9.12,4.68Z" fill="#263238"></path>
    <path d="M588.18,635.53c-2.74,0-6-.76-9.65-3.02-.23-.15-.31-.45-.16-.69,.15-.24,.46-.3,.69-.16,10.31,6.4,17.25,.12,17.32,.06,.2-.19,.52-.18,.71,.03,.19,.2,.18,.52-.03,.71-.05,.05-3.41,3.08-8.88,3.08Z" fill="#263238"></path>
    <path d="M594.65,642.63c-2.79,0-6.87-.61-10.58-3.48-.22-.17-.26-.48-.09-.7,.17-.22,.48-.26,.7-.09,5.9,4.58,13.06,2.99,13.13,2.97,.27-.06,.54,.11,.6,.37,.06,.27-.1,.54-.37,.6-.13,.03-1.45,.33-3.4,.33Z" fill="#263238"></path>
    <path d="M593.66,648.29c-2.06,0-5.16-.42-9.46-2.04-.26-.1-.39-.38-.29-.64,.1-.26,.39-.39,.64-.29,8.35,3.13,11.92,1.58,11.96,1.56,.25-.12,.55,0,.66,.24s.01,.54-.24,.66c-.08,.04-1.11,.5-3.27,.5Z" fill="#263238"></path>
    <path d="M433.49,433.35c-.28,0-.5-.22-.5-.5v-15.26c0-.28,.22-.5,.5-.5s.5,.22,.5,.5v15.26c0,.28-.22,.5-.5,.5Z" fill="#263238"></path>
  </g>
</svg>