<svg xmlns="http://www.w3.org/2000/svg" viewBox="0 0 865.76 682.89"><path d="M785.35,343.34s-38.1,102.6-105.27,144.29l-.08.05-.14.09-.1.06-.12.07c-.46.29-1.27.79-2.44,1.46l-.61.35c-1.3.74-2.94,1.65-4.93,2.68l-1.1.57,0,0-1.12.57-.61.3q-1.95,1-4.21,2c-1,.45-1.93.91-3,1.37l-1.76.79-1.47.65-1.33.57c-.91.39-1.85.78-2.81,1.17l-1.57.65-1.62.64-1.1.43-1,.38-.36.14-2,.77-2.42.88-1.83.66-1.86.65q-3.45,1.19-7.17,2.35l-2.07.64-.34.1-2.46.74-2.87.81-1.4.39q-3.16.87-6.51,1.7l-2.31.56-.59.14-1.34.32-3.2.72-1.63.35-1.64.34-1.66.34-3.36.65-1.54.28c-.62.11-1.25.23-1.89.33l-1.74.3c-.61.1-1.23.21-1.86.3l-3.11.49-.34,0-1.79.26-1.81.24-1.73.23c-1.31.17-2.62.33-4,.48l-3.3.35-.5,0-1.71.17-1.13.1-1.5.13-.37,0-1.52.13c-1.14.09-2.28.17-3.43.24l-1.78.11c-.56,0-1.13.07-1.7.09l-1.11.06-1.18.06-2.38.1-1.61,0h-.09l-2,.05-2.05,0-2.07,0s-105.25,9-152.83,16.77c0,0-164.33,44.12-250.63-72A619.44,619.44,0,0,1,93.87,363.08c-.36-.84-.71-1.69-1.06-2.54a423,423,0,0,1-15.91-45,286.85,286.85,0,0,1-9-42.75c-.19-1.5-.37-3-.53-4.5-.29-2.7-.53-5.4-.71-8.08a160.81,160.81,0,0,1,2.16-41.34A115.55,115.55,0,0,1,76.9,193S111.3,62.69,246.29,45.7c4.81-.61,9.75-1.08,14.82-1.38a259.15,259.15,0,0,1,36.49.43l74.1,1.54h48s1.46.13,4.08.27,6.74.32,11.68.38l3.15,0c4.53,0,9.69-.08,15.27-.36,4.69-.23,9.68-.58,14.83-1.12,6.27-.65,12.79-1.56,19.32-2.82q3.14-.6,6.27-1.31c2.26-.52,4.52-1.08,6.76-1.69,3.49-.95,6.95-2,10.33-3.22,0,0,130.3-52.15,231.62,75.46C743,111.9,833.77,213.07,785.35,343.34Z" fill="#a240ed" data-secondary="true"></path><path d="M785.35,343.34s-38.1,102.6-105.27,144.29l-.08.05-.14.09-.1.06-.12.07c-.46.29-1.27.79-2.44,1.46l-.61.35c-1.3.74-2.94,1.65-4.93,2.68l-1.1.57,0,0-1.12.57-.61.3q-1.95,1-4.21,2c-1,.45-1.93.91-3,1.37l-1.76.79-1.47.65-1.33.57c-.91.39-1.85.78-2.81,1.17l-1.57.65-1.62.64-1.1.43-1,.38-.36.14-2,.77-2.42.88-1.83.66-1.86.65q-3.45,1.19-7.17,2.35l-2.07.64-.34.1-2.46.74-2.87.81-1.4.39q-3.16.87-6.51,1.7l-2.31.56-.59.14-1.34.32-3.2.72-1.63.35-1.64.34-1.66.34-3.36.65-1.54.28c-.62.11-1.25.23-1.89.33l-1.74.3c-.61.1-1.23.21-1.86.3l-3.11.49-.34,0-1.79.26-1.81.24-1.73.23c-1.31.17-2.62.33-4,.48l-3.3.35-.5,0-1.71.17-1.13.1-1.5.13-.37,0-1.52.13c-1.14.09-2.28.17-3.43.24l-1.78.11c-.56,0-1.13.07-1.7.09l-1.11.06-1.18.06-2.38.1-1.61,0h-.09l-2,.05-2.05,0-2.07,0s-105.25,9-152.83,16.77c0,0-164.33,44.12-250.63-72a596.22,596.22,0,0,1-34.8-58.63q-2.52-4.82-5.06-9.89c-5.26-10.5-10.56-21.83-15.55-33.69-.36-.84-.71-1.69-1.06-2.54a423,423,0,0,1-15.91-45,286.85,286.85,0,0,1-9-42.75c-.19-1.5-.37-3-.53-4.5-.29-2.7-.53-5.4-.71-8.08a160.81,160.81,0,0,1,2.16-41.34A115.55,115.55,0,0,1,76.9,193S111.3,62.69,246.29,45.7c4.81-.61,9.75-1.08,14.82-1.38a259.15,259.15,0,0,1,36.49.43l74.1,1.54h48s1.46.13,4.08.27,6.74.32,11.68.38l3.15,0c4.53,0,9.69-.08,15.27-.36,4.69-.23,9.68-.58,14.83-1.12,6.27-.65,12.79-1.56,19.32-2.82q3.14-.6,6.27-1.31c2.26-.52,4.52-1.08,6.76-1.69,3.49-.95,6.95-2,10.33-3.22,0,0,130.3-52.15,231.62,75.46C743,111.9,833.77,213.07,785.35,343.34Z" fill="#fff" opacity="0.7"></path><path d="M248.08,218.85v49.42H67.34c-.29-2.7-.53-5.4-.71-8.08a160.81,160.81,0,0,1,2.16-41.34Z" fill="#a240ed" data-secondary="true"></path><path d="M248.08,218.85v49.42H67.34c-.29-2.7-.53-5.4-.71-8.08a160.81,160.81,0,0,1,2.16-41.34Z" opacity="0.1"></path><rect x="139.8" y="198.18" width="12.58" height="65.6" fill="#a240ed" data-secondary="true"></rect><rect x="208.1" y="186.5" width="12.58" height="76.38" fill="#a240ed" data-secondary="true"></rect><g opacity="0.5"><rect x="139.8" y="198.18" width="12.58" height="65.6" fill="#fff"></rect><rect x="208.1" y="186.5" width="12.58" height="76.38" fill="#fff"></rect></g><path d="M247.86,260.19v12.58h-180c-.19-1.5-.37-3-.53-4.5-.29-2.7-.53-5.4-.71-8.08Z" fill="#a240ed" data-secondary="true"></path><path d="M261.11,44.32V320.39H246.29V45.7C251.1,45.09,256,44.62,261.11,44.32Z" fill="#a240ed" data-secondary="true"></path><path d="M261.11,44.32V320.39H246.29V45.7C251.1,45.09,256,44.62,261.11,44.32Z" fill="#fff" opacity="0.5"></path><path d="M188.33,396.77v9.89H114.48q-2.52-4.82-5.06-9.89Z" fill="#a240ed" data-secondary="true"></path><rect x="81.39" y="141.12" width="162.65" height="12.58" fill="#fff" opacity="0.2"></rect><polygon points="650.65 476.3 562.59 476.3 562.59 148.31 647.06 169.43 650.65 476.3" fill="#a240ed" data-secondary="true"></polygon><polygon points="650.65 476.3 562.59 476.3 562.59 148.31 647.06 169.43 650.65 476.3" fill="#fff" opacity="0.5"></polygon><rect x="563.04" y="176.17" width="54.37" height="10.78" fill="#fff" opacity="0.5"></rect><rect x="563.04" y="198.18" width="54.37" height="10.78" fill="#fff" opacity="0.5"></rect><rect x="563.04" y="220.2" width="83.57" height="10.78" fill="#fff" opacity="0.5"></rect><rect x="563.04" y="242.21" width="81.77" height="10.78" fill="#fff" opacity="0.5"></rect><rect x="563.04" y="265.58" width="81.77" height="10.78" fill="#fff" opacity="0.5"></rect><path d="M563.1,54.14V406.52H438.59V47c4.53,0,9.69-.08,15.27-.36,4.69-.23,9.68-.58,14.83-1.12,6.27-.65,12.79-1.56,19.32-2.82q3.14-.6,6.27-1.31L501,42.6Z" fill="#a240ed" data-secondary="true"></path><path d="M563.1,54.14V406.52H438.59V47c4.53,0,9.69-.08,15.27-.36,4.69-.23,9.68-.58,14.83-1.12,6.27-.65,12.79-1.56,19.32-2.82q3.14-.6,6.27-1.31L501,42.6Z" opacity="0.1"></path><rect x="328.96" y="89.45" width="195.89" height="11.68" fill="#a240ed" data-secondary="true"></rect><rect x="328.96" y="115.96" width="195.89" height="11.68" fill="#a240ed" data-secondary="true"></rect><g opacity="0.2"><rect x="328.96" y="89.45" width="195.89" height="11.68"></rect><rect x="328.96" y="115.96" width="195.89" height="11.68"></rect></g><rect x="240.45" y="141.12" width="237.68" height="14.38" fill="#a240ed" data-secondary="true"></rect><rect x="240.45" y="141.12" width="237.68" height="14.38" fill="#fff" opacity="0.5"></rect><path d="M501,39.66V202.23H488V42.66q3.14-.6,6.27-1.31C496.54,40.83,498.8,40.27,501,39.66Z" fill="#a240ed" data-secondary="true"></path><path d="M468.69,45.48V321.29H453.86V46.6C458.55,46.37,463.54,46,468.69,45.48Z" fill="#a240ed" data-secondary="true"></path><path d="M468.69,45.48V321.29H453.86V46.6C458.55,46.37,463.54,46,468.69,45.48Z" fill="#fff" opacity="0.5"></path><path d="M435.44,46.94V202.23H423.76V46.56C426.5,46.71,430.5,46.88,435.44,46.94Z" fill="#a240ed" data-secondary="true"></path><rect x="192.37" y="382.4" width="243.07" height="87.16" fill="#a240ed" data-secondary="true"></rect><path d="M258.87,299.5H449.48a41.67,41.67,0,0,1,41.67,41.67v0a41.67,41.67,0,0,1-41.67,41.67H258.87a0,0,0,0,1,0,0V299.5a0,0,0,0,1,0,0Z" fill="#a240ed" data-secondary="true"></path><path d="M258.87,299.5H449.48a41.67,41.67,0,0,1,41.67,41.67v0a41.67,41.67,0,0,1-41.67,41.67H258.87a0,0,0,0,1,0,0V299.5a0,0,0,0,1,0,0Z" fill="#fff" opacity="0.5"></path><polygon points="355.02 586.83 357.71 614.23 366.7 623.67 375.24 626.81 387.37 611.09 387.37 581.82 355.02 586.83" fill="#f8d0cf"></polygon><polygon points="355.02 586.83 356.18 598.68 387.37 602.24 387.37 581.82 355.02 586.83" fill="#eda9a9"></polygon><polygon points="285.82 586.38 287.17 599.86 315.93 610.19 315.93 585.38 285.82 586.38" fill="#f8d0cf"></polygon><path d="M376,186.47s17.42,16.13,19.12,40.21L382,266.17S376.28,213,376,186.47Z" fill="#a240ed" data-secondary="true"></path><path d="M327.16,177.52h-6.67s-.07,31.08,6.67,46.54c0,0,14.15,6.25,38.64,1.53l-2.25-42.23a16.26,16.26,0,0,0-8.08-1.86Z" fill="#a240ed" data-secondary="true"></path><path d="M394.11,588.17l-47.28,2.67-3.5-115c.45-37.29-2.69-88.06-2.69-88.06l-8.54,67.84c-2.69,18.42-11.61,135.21-11.61,135.21l-48.59-2.67,6.74-154.55c1.34-35.05,2.46-114.19,2.46-114.19l13.58-35.6,1.48-3.87,5.39-24.72c19.77-32.35,8.09-76.38,8.09-76.38h-1.27a4.43,4.43,0,0,1,1.57-2.69c3.32-2.84,10.55-2.28,10.55-2.28v3.63c.07,29.65,6.67,46.54,6.67,46.54,19.77,4.76,38.64,1.53,38.64,1.53l-2.25-42.23-2.05-.91c.65-7.63,14.48,4,14.48,4L378.1,217c1.06,39.06,11.09,104.37,11.09,104.37,1.38,6.4,3.57,86.17,3.57,86.17Z" fill="#d82762" data-primary="true"></path><path d="M313.27,246.15c-2.94,7.51-7.12,17-11.88,24.21a32,32,0,0,0,0,12.84l-6.71.63,1.48-3.87,5.39-24.72c19.77-32.35,8.09-76.38,8.09-76.38h-1.27a4.43,4.43,0,0,1,1.57-2.69s8.17,12.26,8.23,43.88A71.5,71.5,0,0,1,313.27,246.15Z" opacity="0.2"></path><polygon points="361.76 345.1 390.29 345.1 390.29 314.76 361.89 321.39 361.76 345.1" opacity="0.2"></polygon><polygon points="279.18 416.76 282.23 467.76 291.22 476.75 281.33 485.73 272.34 578.01 279.18 416.76" opacity="0.2"></polygon><polygon points="340.64 387.79 342.89 368.47 359.51 369.81 350.07 375.84 350.07 477.2 362.65 480.34 354.12 489.33 346.51 580.2 340.64 387.79" opacity="0.2"></polygon><path d="M318.17,355.36a197.05,197.05,0,0,1,25.7-1.48,90.1,90.1,0,0,1,12.89.9q6.35,1.08,12.63,2.45c-5.87-.44-11.67-1.45-17.54-1.8-11.22-.49-22.45-.06-33.68-.07Z" opacity="0.2"></path><polygon points="356.45 329.93 394.11 329.93 428.25 228.29 397.03 215.71 356.45 329.93" fill="#ffcc40"></polygon><polygon points="394.11 329.93 414.77 340.16 440.83 238.17 428.25 228.29 394.11 329.93" fill="#ffcc40"></polygon><polygon points="394.11 329.93 414.77 340.16 440.83 238.17 428.25 228.29 394.11 329.93" fill="#fff" opacity="0.4"></polygon><polygon points="471.62 226.68 440.83 238.17 414.77 340.16 433.19 328.68 471.62 226.68" fill="#ffcc40"></polygon><polygon points="481.27 223.79 471.62 226.68 433.19 328.68 438.35 328.68 481.27 223.79" fill="#ffcc40"></polygon><polygon points="481.27 223.79 471.62 226.68 433.19 328.68 438.35 328.68 481.27 223.79" fill="#fff" opacity="0.4"></polygon><polygon points="499.24 218.85 481.27 223.79 438.35 328.68 446.22 328.48 499.24 218.85" fill="#ffcc40"></polygon><path d="M464.72,281.87a15.64,15.64,0,0,1-1.26,11s12,1.08,15.56-15.56c0,0,5-16.2-2.69-19.34l-14.84-7.21a2,2,0,0,0-2.26.34h0a2,2,0,0,0,.36,3.23l9.32,5.44-.12,1.71-8.54-4.14a4.09,4.09,0,0,0-5.05,1.21l-4.07,5.36a4.1,4.1,0,0,0,1,5.91l7.27,4.77A12.59,12.59,0,0,1,464.72,281.87Z" fill="#f8d0cf"></path><line x1="451.13" y1="263.88" x2="468.79" y2="272.82" fill="#eda9a9"></line><line x1="453.84" y1="260.3" x2="471.62" y2="268.35" fill="#eda9a9"></line><path d="M443.08,643a9.3,9.3,0,0,1-.52,2.69h0c-1.4,4.14-6.55,11.07-25.54,5.83a72,72,0,0,0-7.89-3.2,28.7,28.7,0,0,0-18.71.06,17,17,0,0,1-16.08-2.25s-9-11.23-16.63-.45a172.57,172.57,0,0,0,.72-18.8,13.5,13.5,0,0,0-2.76-7.75c-2-2.55-4-6.52.69-8,0,0,4.49-4.11,8.41,3.27a10.31,10.31,0,0,0,3.73,4c2.89,1.77,7.36,2.47,11.68-5.08l4.49-6.74,24.26,25.17s3.15,4.94,17.08,5.84C426,637.6,443.08,637.15,443.08,643Z" fill="#a240ed" data-secondary="true"></path><path d="M442.56,645.69c-1.42,12.12-13.38,11.3-13.38,11.3H362.65c-7.63-2.18-4.94-11.31-4.94-11.31,7.64-10.78,16.63.45,16.63.45a17,17,0,0,0,16.08,2.25,28.7,28.7,0,0,1,18.71-.06,72,72,0,0,1,7.89,3.2C436,656.76,441.16,649.83,442.56,645.69Z" fill="#fff"></path><path d="M322.67,634.9s-4.13-.17-6.06,4.67a11.47,11.47,0,0,1-4.47,5.54c-3.58,2.25-9.31,4.1-15.53-.77,0,0-18-10.34-28.76-.9,0,0-5.84,5.84-8.53,3.14,0,0,.42-5.66,11.61-14.17a25.14,25.14,0,0,0,2.27-2A66.08,66.08,0,0,0,282,620.12a13.94,13.94,0,0,0,2.16-8.81c-.27-3.11-.6-7-.6-7s-1.15-11.75,21-6.54c0,0,11.83,3.42,14.52,22.74Z" fill="#a240ed" data-secondary="true"></path><path d="M326,653.52,264,656.72a4.83,4.83,0,0,1-5.06-5.22l.41-4.92c2.69,2.7,8.53-3.14,8.53-3.14,10.79-9.44,28.76.9,28.76.9,6.22,4.87,11.95,3,15.53.77a11.47,11.47,0,0,0,4.47-5.54c1.93-4.84,6.06-4.67,6.06-4.67,4.26,5.25,5.21,12.7,5.41,16.34A2.17,2.17,0,0,1,326,653.52Z" fill="#fff"></path><ellipse cx="192.6" cy="425.98" rx="22.69" ry="43.58" fill="#fff"></ellipse><ellipse cx="193.04" cy="426.2" rx="15.5" ry="32.57" fill="#a240ed" data-secondary="true"></ellipse><ellipse cx="259.09" cy="341.17" rx="22.69" ry="41.67" fill="#fff"></ellipse><ellipse cx="259.54" cy="341.39" rx="15.5" ry="31.15" fill="#a240ed" data-secondary="true"></ellipse><rect x="161.82" y="298.83" width="44.48" height="64.25" fill="#a240ed" data-secondary="true"></rect><polygon points="199.58 360.54 199.58 298.83 206.3 298.83 206.3 363.08 161.82 363.08 161.82 360.54 199.58 360.54" fill="#fff" opacity="0.4"></polygon><path d="M121.38,298.83v64.25H93.87c-.36-.84-.71-1.69-1.06-2.54a423,423,0,0,1-15.91-45V298.83Z" fill="#a240ed" data-secondary="true"></path><path d="M121.38,298.83v64.25H93.87c-.36-.84-.71-1.69-1.06-2.54h21.85V298.83Z" fill="#fff" opacity="0.4"></path><path d="M333.9,158.65s.9,14.37-6.74,18.87c0,0,7.39,16,24.14,15.46a5.32,5.32,0,0,0,5-6.53c-.07-.28-.16-.56-.26-.86a9.33,9.33,0,0,1-.57-3.14V173L337.84,156Z" fill="#f8d0cf"></path><path d="M338.56,162.68s.73,18,16.91,19.77V173Z" fill="#eda9a9"></path><ellipse cx="357.49" cy="149.43" rx="21.79" ry="26.73" fill="#f8d0cf"></ellipse><path d="M323.57,138.5l26.5-.07s14.83-10.79,33.25-8.54c0,0-4.49-29.2-35-24.26C348.28,105.63,322.22,108.46,323.57,138.5Z" fill="#d82762" data-primary="true"></path><path d="M323.57,138.5l26.5-.07s14.83-10.79,33.25-8.54c0,0-4.49-29.2-35-24.26C348.28,105.63,322.22,108.46,323.57,138.5Z" opacity="0.2"></path><path d="M358.74,133.64s-13.39-19.12-31.25-14.13a22.66,22.66,0,0,1,6.46-7.6s20.12,1.75,27.56,20.65Z" fill="#d82762" data-primary="true"></path><path d="M376.77,129.61s-4.52-22.8-28-24.06c0,0,10-5.63,19.61,1.28a21,21,0,0,1,6.57,8.06,39.07,39.07,0,0,1,3.84,14.55Z" fill="#d82762" data-primary="true"></path><path d="M381,129.67a25,25,0,0,0-2.65-12.16s5.59,3.59,5.95,12.93l-1-.55Z" fill="#d82762" data-primary="true"></path><path d="M341.06,143.29a43.53,43.53,0,0,1,1.6-4.79H327.49A77.92,77.92,0,0,0,341.06,143.29Z" fill="#224596"></path><path d="M342.66,138.5s-4.63,10.71-.86,14.3c0,0,1.2,2,5.64,2.55l1.37-5.25,1.26-11.67Z" fill="#a240ed" data-secondary="true"></path><path d="M327.49,138.5a93.22,93.22,0,0,0,13.57,4.79s-1.16,4.81-.56,6.89a.22.22,0,0,1-.26.28c-2.69-.7-17.9-4.93-16.67-12Z" fill="#a240ed" data-secondary="true"></path><path d="M387.89,145.17s1.39-.72,1.05-4.27a384.23,384.23,0,0,1-38.87-2.47S381,144.94,387.89,145.17Z" fill="#224596"></path><path d="M350.07,138.43l37.82,6.74s1.59,17-10.58,18.25A13.52,13.52,0,0,1,366,159l-.67-.77s-12.41,1.55-17-1.86a3.3,3.3,0,0,1-1.32-2.75A49.91,49.91,0,0,1,350.07,138.43Z" fill="#fff"></path><path d="M352.32,140.22l32,6.24s1.26,15.78-8.63,13.53a11.3,11.3,0,0,1-6.37-4s-19.69,3.82-19.24-3.7C350.07,152.25,350.07,144.27,352.32,140.22Z" fill="#0d086b"></path><polygon points="368.04 143.29 359.42 156.92 363.73 156.71 371.7 144 368.04 143.29" fill="#fff" opacity="0.2"></polygon><path d="M370.9,157.53l8.38-12.05,5,1,.05,2.75-7.94,10.92A9.85,9.85,0,0,1,370.9,157.53Z" fill="#fff" opacity="0.2"></path><path d="M350.07,138.43s28.78,4,41.48,2.56a2,2,0,0,0,1.57-2.9c-1-1.92-3.48-4.8-9.8-8.2A49.7,49.7,0,0,0,350.07,138.43Z" fill="#d82762" data-primary="true"></path><circle cx="331.65" cy="150.56" r="8.99" fill="#fff"></circle><circle cx="331.65" cy="150.56" r="5.39" fill="#0d086b"></circle><path d="M347,289.2v32.19L268.3,319a25.52,25.52,0,0,1-5-1.19c-5.95-2-15.15-7.32-15.13-20.69a36.83,36.83,0,0,1,.95-8s9.73-50.13,14.67-66.75c0,0,6.74-38.64,45.83-43.59,0,0,4.49,11.24,3.14,39.09,0,0,.45,22.47-11.23,37.29,0,0-4,20.22-5.39,24.72Z" fill="#a240ed" data-secondary="true"></path><path d="M306.94,215.71s-8.09,56.61-29.2,64.25c0,0,6.29,2.24,10.78,2.24l-.45,6.74s26.06-4,49-1.55L296.16,280l5.39-24.72S310.09,230.08,306.94,215.71Z" opacity="0.2"></path><path d="M263.32,317.85c-5.95-2-15.15-7.32-15.13-20.69a6.22,6.22,0,0,1,2.59-.58C256.75,296.58,261.78,305.57,263.32,317.85Z" opacity="0.2"></path><path d="M387,285.34c-.28,1.34-1.66,3.57-6.84,6.3,0,0-2.25,1.79.9,5.39,0,0,3.59,4-3.15,9.88l-5.28,5.56a9.18,9.18,0,0,1-7.93,2.76L347,312.73V289.2s3.51-13.29,13.4-11c0,0,3.14,1.35,7.19-2.7l4.84-4.53a2.13,2.13,0,0,1,3.25.43,2.09,2.09,0,0,1,.29,1c0,2.12-1,5.51-5.14,10.83a.75.75,0,0,0,.61,1.21l12.55-.33,1.91-.05A1.09,1.09,0,0,1,387,285.34Z" fill="#f8d0cf"></path><path d="M387,285.34c-.28,1.34-1.66,3.57-6.84,6.3,0,0-2.25,1.79.9,5.39,0,0,3.59,4-3.15,9.88l-5.28,5.56a9,9,0,0,1-3.49,2.29c-.26-6.12,5.18-10.43,5.18-10.43,5.84-4.39,1.79-9,1.79-9-4-3.05,0-5,0-5l7.87-6.21,1.91-.05A1.09,1.09,0,0,1,387,285.34Z" fill="#eda9a9"></path><path d="M376,272.37c0,2.12-1,5.51-5.14,10.83,0,0-8.21-.89-1.68-5.89a61.81,61.81,0,0,0,6.52-5.95h0A2.09,2.09,0,0,1,376,272.37Z" fill="#eda9a9"></path><path d="M664.58,245.81V495.89c-3,1.43-6.48,3-10.33,4.55V245.81Z" fill="#d82762" data-primary="true"></path><rect x="607.37" y="137.41" width="103.43" height="103.11" transform="translate(326.66 -410.69) rotate(45)" fill="#d82762" data-primary="true"></rect><rect x="612" y="142.03" width="94.16" height="93.87" transform="translate(326.66 -410.69) rotate(45)" fill="#fff"></rect><circle cx="659.42" cy="163.36" r="6.07" fill="#d82762" data-primary="true"></circle><path d="M654.25,215.77a.68.68,0,0,1-.68-.67V201.54a4.28,4.28,0,0,0-1.2-3L638.4,184a.67.67,0,0,1,1-.93l14,14.52a5.62,5.62,0,0,1,1.58,3.92V215.1A.67.67,0,0,1,654.25,215.77Z" fill="#d82762" data-primary="true"></path><path d="M669.08,206.94a.66.66,0,0,1-.48-.19l-36.89-36.84a.68.68,0,1,1,.95-1l36.89,36.84a.67.67,0,0,1,0,1A.66.66,0,0,1,669.08,206.94Z" fill="#d82762" data-primary="true"></path><polygon points="687.5 186.95 660.38 214.81 687.5 214.81 687.5 186.95" fill="#d82762" data-primary="true"></polygon><path d="M638.07,215.48a.67.67,0,0,1-.67-.67v-28a7.73,7.73,0,0,1,2.41-5.59l13.65-12.88H642.89c-1.82,0-3.1.52-3.82,1.52-1.41,2-.37,5.19-.36,5.22a.67.67,0,0,1-.42.85.68.68,0,0,1-.86-.43c0-.16-1.26-3.92.54-6.42,1-1.37,2.64-2.08,4.92-2.09h12.27a.68.68,0,0,1,.62.42.66.66,0,0,1-.16.74l-14.88,14.05a6.33,6.33,0,0,0-2,4.61v28A.67.67,0,0,1,638.07,215.48Z" fill="#d82762" data-primary="true"></path><path d="M655.16,193.05a.69.69,0,0,1-.68-.68V167.68a.68.68,0,0,1,.68-.67.67.67,0,0,1,.67.67v24.69A.68.68,0,0,1,655.16,193.05Z" fill="#d82762" data-primary="true"></path><rect x="416.57" y="371.16" width="3.59" height="44.93" fill="#a240ed" data-secondary="true"></rect><rect x="417.02" y="431.37" width="3.59" height="44.93" fill="#a240ed" data-secondary="true"></rect><g opacity="0.2"><rect x="416.57" y="371.16" width="3.59" height="44.93"></rect><rect x="417.02" y="431.37" width="3.59" height="44.93"></rect></g><rect x="438.59" y="363.52" width="12.58" height="10.78" fill="#a240ed" data-secondary="true"></rect><rect x="673.57" y="363.52" width="12.58" height="10.78" fill="#a240ed" data-secondary="true"></rect><g opacity="0.2"><rect x="438.59" y="363.52" width="12.58" height="10.78"></rect><rect x="673.57" y="363.52" width="12.58" height="10.78"></rect></g><polygon points="408.65 604.32 416.57 604.32 442.63 409.8 434.09 410.67 408.65 604.32" fill="#a240ed" data-secondary="true"></polygon><polygon points="473.51 604.32 481.57 604.32 456.11 409.8 448.56 409.8 473.51 604.32" fill="#a240ed" data-secondary="true"></polygon><polygon points="643.63 604.32 651.55 604.32 677.61 409.8 669.08 410.67 643.63 604.32" fill="#a240ed" data-secondary="true"></polygon><polygon points="708.49 604.32 716.55 604.32 691.09 409.8 683.54 409.8 708.49 604.32" fill="#a240ed" data-secondary="true"></polygon><g opacity="0.2"><polygon points="408.65 604.32 416.57 604.32 442.63 409.8 434.09 410.67 408.65 604.32"></polygon><polygon points="473.51 604.32 481.57 604.32 456.11 409.8 448.56 409.8 473.51 604.32"></polygon><polygon points="643.63 604.32 651.55 604.32 677.61 409.8 669.08 410.67 643.63 604.32"></polygon><polygon points="708.49 604.32 716.55 604.32 691.09 409.8 683.54 409.8 708.49 604.32"></polygon></g><rect x="420.16" y="371.16" width="288.45" height="44.93" fill="#a240ed" data-secondary="true"></rect><polygon points="430.77 416.09 458.25 371.16 478.86 371.16 450.93 416.09 430.77 416.09" fill="#fff" opacity="0.2"></polygon><polygon points="484.69 416.09 512.17 371.16 532.78 371.16 504.84 416.09 484.69 416.09" fill="#fff" opacity="0.2"></polygon><polygon points="539.05 416.09 566.53 371.16 587.14 371.16 559.21 416.09 539.05 416.09" fill="#fff" opacity="0.2"></polygon><polygon points="593.42 416.09 620.9 371.16 641.51 371.16 613.57 416.09 593.42 416.09" fill="#fff" opacity="0.2"></polygon><polygon points="646.89 416.09 674.37 371.16 694.97 371.16 667.04 416.09 646.89 416.09" fill="#fff" opacity="0.2"></polygon><rect x="420.61" y="431.37" width="288.45" height="44.93" fill="#a240ed" data-secondary="true"></rect><polygon points="431.22 476.3 458.7 431.37 479.31 431.37 451.38 476.3 431.22 476.3" fill="#fff" opacity="0.2"></polygon><polygon points="485.14 476.3 512.62 431.37 533.23 431.37 505.29 476.3 485.14 476.3" fill="#fff" opacity="0.2"></polygon><polygon points="539.5 476.3 566.98 431.37 587.59 431.37 559.66 476.3 539.5 476.3" fill="#fff" opacity="0.2"></polygon><polygon points="593.87 476.3 621.35 431.37 641.96 431.37 614.02 476.3 593.87 476.3" fill="#fff" opacity="0.2"></polygon><polygon points="647.34 476.3 674.82 431.37 695.42 431.37 667.49 476.3 647.34 476.3" fill="#fff" opacity="0.2"></polygon><circle cx="445.1" cy="357.91" r="11.01" fill="#ffcc40"></circle><circle cx="680.08" cy="357.91" r="11.01" fill="#ffcc40"></circle><path d="M220.81,621.93l-81.11-.51,9.58-41.33,3.33-14.38,4.17-18,3.34-14.38,4.06-17.52,3.12-13.48,9.09-39.19a3.93,3.93,0,0,1,7.66,0l9.07,39.19,3.12,13.48,4.06,17.52,3.33,14.38,4.16,18,3.33,14.38Z" fill="#d82762" data-primary="true"></path><polygon points="196.24 515.84 164.18 515.84 167.3 502.36 193.12 502.36 196.24 515.84" fill="#fff"></polygon><polygon points="203.63 547.74 156.78 547.74 160.12 533.36 200.3 533.36 203.63 547.74" fill="#fff"></polygon><polygon points="211.12 580.09 149.28 580.09 152.61 565.71 207.79 565.71 211.12 580.09" fill="#fff"></polygon><path d="M139.7,621.42,141,616s59.54-18.4,56.37-95.44l23.48,101.39Z" opacity="0.2"></path><rect x="126.32" y="618.73" width="109.18" height="5.39" rx="2.7" fill="#d82762" data-primary="true"></rect><path d="M280.66,326h25.7s3.5,33.66-25.7,34.4Z" fill="#d82762" data-primary="true"></path><path d="M280.66,326h25.7s3.5,33.66-25.7,34.4Z" opacity="0.2"></path></svg>